<?xml version="1.0" encoding="UTF-8"?>
<svg version="1.1" xmlns="http://www.w3.org/2000/svg" width="512" height="512">
<path d="M0 0 C1.09054688 0.44085938 2.18109375 0.88171875 3.3046875 1.3359375 C24.31118471 10.7589833 36.00092752 29.69996588 47.02856445 49.00415039 C55.4135222 64.66939349 55.4135222 64.66939349 69 75 C73.06808417 75.57095918 75.26971045 75.33471604 79 73.625 C87.83172061 65.89724446 92.84894992 54.25587711 98.30664062 44.07617188 C108.40249148 25.53384435 120.50752226 9.26796189 140.9921875 1.875 C157.18843701 -2.83663622 173.91870996 -0.10583679 188.546875 7.859375 C194.45992329 11.34113639 199.2808949 16.06105014 204 21 C204.7113208 21.71647705 205.4226416 22.4329541 206.15551758 23.17114258 C214.03195337 31.40033686 220.01856283 40.65526407 226.1875 50.1875 C227.755782 52.60208717 229.32701879 55.01456769 230.90559387 57.42243958 C231.87807701 58.90654216 232.84479163 60.39444939 233.804245 61.88700867 C237.13466448 66.98008681 240.89431539 71.51214241 245 76 C255.06488101 74.15010573 261.7624705 66.67085634 268.69384766 59.58740234 C270.12281172 58.12723606 271.56220421 56.67804929 273.00390625 55.23046875 C277.62586719 50.56963313 282.12105728 45.83363619 286.39941406 40.85449219 C302.37892992 22.34009279 319.14131485 4.8215571 344.75 2.6875 C351.95066001 2.82731864 358.8236363 5.42529159 364 10.4375 C370.49972267 17.71470146 371.42966336 23.78209452 371.33984375 33.3828125 C370.68198481 40.38485129 367.76615697 45.69092393 362.625 50.4375 C358.50883953 53.60721143 354.08825216 55.46682923 349.0625 56.75 C338.6423911 61.00310567 330.0795787 72.57199108 322.8449707 80.90112305 C317.95684766 86.46195324 312.82274785 91.80495062 307.72851562 97.17626953 C306.30890218 98.67408202 304.89573266 100.17799947 303.484375 101.68359375 C288.89808404 116.83712935 269.9502462 129.53896319 248.46484375 130.39599609 C231.23388198 130.70163711 217.73064301 124.91161402 205.16015625 113.18359375 C194.15713915 102.06119491 186.10986773 88.42569172 177.640625 75.36328125 C169.66094718 61.83192688 169.66094718 61.83192688 157 54 C151.36920692 59.93030335 147.85817414 66.44878429 144.125 73.6875 C132.07711847 96.95750939 118.03221272 118.27043948 92.125 126.96484375 C74.00100404 131.98130692 54.87550258 129.74400859 38.36328125 121.01953125 C21.37142165 110.81652148 11.0481363 94.68955589 1.19726562 78.01757812 C-6.81441085 62.53545838 -6.81441085 62.53545838 -19 51 C-26.27337715 50.27266228 -30.80134799 52.46839036 -36.37890625 56.8828125 C-44.54710353 64.01560449 -51.68205741 72.08840826 -58.5 80.5 C-70.81145057 95.66753401 -86.04004035 112.02515649 -106.578125 114.81640625 C-107.37734375 114.87699219 -108.1765625 114.93757813 -109 115 C-109.96421875 115.09152344 -110.9284375 115.18304688 -111.921875 115.27734375 C-120.84342959 115.74153631 -127.09161286 113.31363258 -133.875 107.5625 C-141.0032336 98.96668889 -141.8133256 91.83304509 -141 81 C-139.46418263 75.46604936 -136.29039342 71.76717471 -132 68 C-131.319375 67.29875 -130.63875 66.5975 -129.9375 65.875 C-126.85733074 63.90893452 -124.85837459 63.49718934 -121.3125 62.8125 C-110.74782926 60.39142962 -104.74604034 51.9888142 -98.2890625 43.83203125 C-95.13045155 39.92419348 -91.74087 36.25163593 -88.3359375 32.55859375 C-86.33686437 30.36897351 -84.41125858 28.14069385 -82.5 25.875 C-63.24877913 3.93756227 -28.97061291 -12.31472537 0 0 Z " fill="#000000" transform="translate(141,108)"/>
<path d="M0 0 C15.4986527 11.96276452 25.04911829 28.29261147 34.81152344 44.92578125 C42.4534769 59.11336504 42.4534769 59.11336504 55 68 C59.01806648 68.50225831 61.31432224 68.31426897 65 66.625 C72.60069574 59.97439123 77.16898592 50.38312874 81.9375 41.625 C93.42963232 20.84148553 105.48700708 1.23318442 129.625 -5.8125 C145.70416223 -9.39479735 162.06725408 -6.92694125 176.08984375 1.88671875 C181.48059037 5.80134147 186.35874702 10.22066258 191 15 C191.56001709 15.56227295 192.12003418 16.1245459 192.69702148 16.70385742 C200.06016864 24.49984923 205.67003184 33.64807578 211.5625 42.5625 C213.21615132 45.06149613 214.87195157 47.55891995 216.53489685 50.05174255 C217.56226133 51.59191892 218.58452822 53.13551389 219.60047913 54.6832428 C222.97384514 59.74230668 226.52801735 64.84489169 231 69 C234.65338257 69.55594952 236.21825152 68.53875384 239.19921875 66.484375 C241.5231822 64.71739452 243.7626754 62.87485302 246 61 C246.86625 60.360625 247.7325 59.72125 248.625 59.0625 C251.37399153 56.67521788 253.62064438 54.03941901 255.98046875 51.2734375 C258.22734166 48.74407573 260.59144327 46.37566293 263 44 C265.8520335 41.17785308 268.63558525 38.35604849 271.25 35.3125 C286.19280065 17.97321245 302.97554471 -1.20875303 327.125 -3.875 C335.6403996 -4.30407052 341.62220068 -3.04024587 348.28125 2.4296875 C353.51597498 7.21232259 356.57144647 12.17096737 357.359375 19.2109375 C357.70973805 28.18412461 356.4414314 35.03108268 350.35546875 41.83984375 C345.89033649 45.96227963 340.93495428 48.17553032 335.09375 49.81640625 C331.65547475 51.13180701 329.7320312 52.67372751 327.0625 55.1875 C325.77085937 56.39792969 325.77085937 56.39792969 324.453125 57.6328125 C323.64359375 58.41398437 322.8340625 59.19515625 322 60 C321.35546875 60.61617188 320.7109375 61.23234375 320.046875 61.8671875 C317.1410992 64.7075179 314.40151477 67.65136939 311.74609375 70.7265625 C305.69683228 77.66858624 299.34262803 84.3269385 293 91 C292.48324707 91.54688477 291.96649414 92.09376953 291.43408203 92.65722656 C276.21819085 108.6887186 257.34495738 122.64171583 234.55102539 123.46850586 C216.77540114 123.68271002 203.49043847 117.76503556 190.52734375 105.62109375 C181.35796756 96.11158614 174.27142934 85.08743202 167.24169922 73.96289062 C157.90538218 57.1819592 157.90538218 57.1819592 143 47 C137.29040822 53.73043356 133.21045326 60.85934236 129.1875 68.6875 C117.14027849 91.54366759 103.37101075 110.71074155 78.375 119.97265625 C60.61080058 125.39780238 40.5920228 122.64439708 24.421875 114.07421875 C5.50672628 103.01900895 -5.67268193 83.5713453 -16.39453125 65.18945312 C-23.1369561 53.24479874 -23.1369561 53.24479874 -33 44 C-39.0104948 43.19089493 -43.09867362 44.71770382 -48 48 C-56.86838211 55.04591524 -64.22469187 63.52922698 -71.3125 72.3125 C-84.41882698 88.39960621 -100.03276705 105.68765969 -122 108 C-131.87284877 108.7898279 -138.45328543 107.52972745 -146.75 102.25 C-153.41464484 95.58535516 -155.2891143 89.05860147 -155.3190918 79.77001953 C-155.18533077 72.61596181 -153.22949919 68.66301292 -148.75 63.3125 C-143.60600902 58.98687122 -139.20183869 56.14286826 -132.5625 54.75 C-122.8078262 52.32814995 -117.32879354 43.32465076 -111.32421875 35.83203125 C-108.13140244 31.94162482 -104.74187894 28.25117566 -101.328125 24.5546875 C-99.35890844 22.39383577 -97.48772626 20.18904776 -95.625 17.9375 C-72.49677262 -8.42544449 -30.69441991 -21.36953285 0 0 Z " fill="#000000" transform="translate(155,284)"/>
</svg>
