<?xml version="1.0" encoding="UTF-8"?>
<svg version="1.1" xmlns="http://www.w3.org/2000/svg" width="512" height="512">
<path d="M0 0 C0.77230957 0.21430664 1.54461914 0.42861328 2.34033203 0.64941406 C19.55651095 5.56219284 33.15058626 12.42614857 45 26 C46.13115234 27.29550781 46.13115234 27.29550781 47.28515625 28.6171875 C49.5869136 31.36592858 51.79715288 34.17134404 54 37 C55.03106002 38.29051639 56.06232384 39.58086997 57.09375 40.87109375 C79.60649508 69.32571641 95.56328087 103.67943514 91.3125 140.75 C86.54036182 176.18271878 64.78094658 207.41459937 36.70703125 228.92578125 C35 230 35 230 33 230 C32.6596875 231.7325 32.6596875 231.7325 32.3125 233.5 C25.44983059 263.64841666 6.06107789 291.98560201 -20 309 C-24.4463141 310.4821047 -28.57730602 310.9347402 -32.984375 309.234375 C-41.50193866 304.39639884 -47.62960231 296.09675184 -52.7109375 287.91015625 C-54.59916106 285.11215224 -56.16372138 283.33903187 -59.3125 282.0625 C-63.40377934 281.96735397 -64.96997834 283.29232107 -68 286 C-71.6052322 291.5576041 -73.16890153 297.43425526 -72 304 C-68.99223246 310.97255203 -62.53618494 314.12513718 -55.79199219 316.91259766 C-47.97541041 319.97721399 -40.10113487 322.78764188 -32 325 C-34.20004076 327.20004076 -35.53403702 327.63085428 -38.4375 328.625 C-61.02885757 337.52560649 -75.32214913 361.01136008 -88.34667969 380.19360352 C-110.73158121 413.12588698 -110.73158121 413.12588698 -124 418 C-129.88731835 418.77210732 -133.71296118 417.85008093 -138.765625 414.72265625 C-149.28302437 406.61396198 -153.26226863 394.64893451 -155.3125 381.9375 C-157.84722874 360.18711342 -154.1030607 338.56055336 -147 318 C-148.09957031 317.3709375 -149.19914063 316.741875 -150.33203125 316.09375 C-169.66033696 304.94727101 -191.52565132 291.38081809 -199 269 C-202.14001706 255.88830715 -198.54554952 243.92293146 -193 232 C-204.49214959 246.58932466 -212.00580841 261.99088279 -210.8125 280.984375 C-208.33638751 300.48376089 -195.85318564 314.78138724 -182.6796875 328.3984375 C-154.53331714 359.40715061 -158.61846287 421.60696713 -160.15234375 460.90283203 C-161.90628566 494.76017497 -161.90628566 494.76017497 -168 508 C-168.99 508 -169.98 508 -171 508 C-171.1451001 507.19183838 -171.2902002 506.38367676 -171.43969727 505.55102539 C-181.57157129 449.72112354 -202.09675353 397.82388726 -227 347 C-227.36689941 346.24960449 -227.73379883 345.49920898 -228.11181641 344.72607422 C-230.36586879 340.12895031 -232.67146964 335.55977989 -235 331 C-235.63276855 329.75331543 -235.63276855 329.75331543 -236.27832031 328.48144531 C-246.43328991 308.52217103 -257.7056378 289.29163969 -269.375 270.1875 C-270.01663086 269.13264404 -270.65826172 268.07778809 -271.31933594 266.9909668 C-275.05024725 260.92992128 -278.99877121 255.1176318 -283.23193359 249.39624023 C-285.27492632 246.6273955 -287.20533386 243.79290299 -289.125 240.9375 C-298.49935846 227.28113058 -308.8387402 214.53016726 -320.39208984 202.66357422 C-321.89469558 201.10894994 -323.36638478 199.53079301 -324.83203125 197.94140625 C-332.68538497 189.6511163 -341.88129504 182.24645999 -353 179 C-349.46517385 170.27417873 -337.21365404 165.70265241 -329.3125 161.625 C-328.22670654 161.06409668 -327.14091309 160.50319336 -326.0222168 159.92529297 C-315.29719674 154.4877148 -304.33722132 149.98734331 -293 146 C-292.07058594 145.67273926 -291.14117187 145.34547852 -290.18359375 145.00830078 C-270.39724941 138.15256638 -247.02875851 130.64545501 -226 136 C-221.74574307 136.22790662 -218.64991525 136.33594576 -215 134 C-214.14251314 128.56924987 -216.1330579 125.2389145 -218.94140625 120.80078125 C-222.16697016 116.41230056 -225.84901626 112.49742084 -229.609375 108.56640625 C-232 106 -232 106 -234 103 C-228.86094996 98.9242017 -224.40950629 98.27880357 -218 99 C-207.61128477 102.07618471 -197.95877099 110.06184351 -192 119 C-191.72875977 121.05859375 -191.72875977 121.05859375 -191.69140625 123.4375 C-191.66852539 124.32276367 -191.64564453 125.20802734 -191.62207031 126.12011719 C-191.59258301 127.54565918 -191.59258301 127.54565918 -191.5625 129 C-190.58085977 157.5423582 -184.13672017 186.89259764 -165 209 C-164.38898438 209.721875 -163.77796875 210.44375 -163.1484375 211.1875 C-151.04941136 224.36771571 -133.25274875 231.81099458 -116 235 C-115.08234863 235.17200928 -114.16469727 235.34401855 -113.21923828 235.52124023 C-96.06646504 238.07217216 -76.88788098 236.59254808 -60 233 C-58.54207031 232.70198486 -58.54207031 232.70198486 -57.0546875 232.39794922 C-44.15132757 229.69964322 -32.83410088 226.68783421 -22 219 C-21.4534375 218.61295898 -20.906875 218.22591797 -20.34375 217.82714844 C-16.44037097 215.02837146 -12.69270811 212.06999769 -9 209 C-8.02933594 208.195625 -7.05867188 207.39125 -6.05859375 206.5625 C8.45604916 193.96564719 21.06085635 175.02877109 22.8671875 155.35546875 C22.91101563 154.57816406 22.95484375 153.80085937 23 153 C23.06445312 151.94425781 23.12890625 150.88851562 23.1953125 149.80078125 C23.94873743 126.16835255 14.806481 103.50545017 -1 86 C-10.06935731 76.78921022 -21.06484708 71.99207107 -34.0625 71.625 C-47.15197773 72.03035157 -57.83403778 77.92679325 -66.7734375 87.32421875 C-77.71695015 100.47563308 -87.96548101 117.75791238 -87.33984375 135.30078125 C-86.38684146 142.87002929 -83.49997579 148.79064396 -77.453125 153.52734375 C-68.87839498 158.67491257 -58.85106321 160.29002018 -49 159 C-43.66435809 157.41120217 -39.89643183 154.82738639 -37 150 C-32.60122292 140.05990635 -33.4568772 131.10581418 -37 121 C-38.77792175 117.47514424 -40.65028102 114.10471171 -42.671875 110.71484375 C-44 108 -44 108 -43 105 C-37.10174707 102.66813256 -29.01609618 103.02037846 -23.1015625 104.94140625 C-14.33403168 109.14086921 -8.95292136 115.41180891 -5.01953125 124.1875 C-0.10186377 138.59418782 -2.01774207 155.93244819 -7 170 C-7.30035156 170.9075 -7.60070312 171.815 -7.91015625 172.75 C-14.31346815 190.49077757 -27.65763548 204.13774871 -44.4375 212.25 C-53.02659224 216.03485263 -61.61492903 218.48209475 -71 219 C-72.24910156 219.07927734 -72.24910156 219.07927734 -73.5234375 219.16015625 C-97.85357435 219.94390015 -123.86495349 212.50092436 -142.43359375 196.5 C-156.53321282 182.76521125 -162.82323461 164.92661351 -163.35180664 145.53222656 C-163.57408485 120.06616301 -157.43503512 95.1741856 -147 72 C-146.4119458 70.670896 -146.4119458 70.670896 -145.81201172 69.31494141 C-135.86253525 46.99784114 -135.86253525 46.99784114 -127 38 C-125.86528222 36.79093041 -124.73121997 35.5812454 -123.59765625 34.37109375 C-107.58539804 17.56011434 -88.56439751 5.09525568 -66 -1 C-64.865625 -1.31839844 -63.73125 -1.63679687 -62.5625 -1.96484375 C-42.43543562 -6.67128014 -19.81918347 -5.61137838 0 0 Z " fill="#000000" transform="translate(387,4)"/>
</svg>
