<?xml version="1.0" encoding="UTF-8"?>
<svg version="1.1" xmlns="http://www.w3.org/2000/svg" width="512" height="512">
<path d="M0 0 C5.38697123 2.28901557 10.86540001 3.82406078 16.51635742 5.32397461 C31.42568019 9.34883664 45.15902293 15.59520184 57.14135742 25.44897461 C58.15842773 26.25463867 59.17549805 27.06030273 60.22338867 27.89038086 C66.12747322 32.61891757 71.51887423 37.44893021 76.14135742 43.44897461 C76.92124023 44.45444336 77.70112305 45.45991211 78.50463867 46.49584961 C88.14806267 59.27306305 94.7956057 73.04130943 99.14135742 88.44897461 C99.62088867 90.04225586 99.62088867 90.04225586 100.11010742 91.66772461 C104.96207373 110.89588737 103.96657707 133.53598178 98.14135742 152.44897461 C97.82787354 153.47885498 97.82787354 153.47885498 97.50805664 154.52954102 C92.85327586 169.2679368 85.36875873 182.85406767 75.14135742 194.44897461 C74.40530273 195.32811523 73.66924805 196.20725586 72.91088867 197.11303711 C52.97508453 220.20344647 24.24037043 233.70970096 -5.99316406 236.17749023 C-40.92659847 238.34077444 -71.23806092 226.04316924 -97.35864258 203.26928711 C-119.90781106 181.92810979 -131.48813255 151.97392235 -132.78613281 121.36206055 C-133.46951202 95.96888581 -125.29061666 72.75486454 -111.85864258 51.44897461 C-111.19864258 50.78897461 -110.53864258 50.12897461 -109.85864258 49.44897461 C-192.41062982 47.2551718 -276.62869408 88.61870404 -338.79614258 140.72241211 C-349.62982558 149.78597413 -357.7177676 154.22461253 -372.33911133 153.76538086 C-382.31592626 152.86846409 -389.36548848 148.42043305 -396.10864258 141.13647461 C-402.77992306 132.95643042 -404.59830723 123.74948981 -403.85864258 113.44897461 C-400.73493098 95.65970178 -385.37229972 84.97533302 -371.75317383 74.85913086 C-369.66593625 73.30553753 -367.59079575 71.73642631 -365.51489258 70.16772461 C-349.63011284 58.23787638 -333.04633948 47.40655909 -315.85864258 37.44897461 C-315.24666016 37.09416016 -314.63467773 36.7393457 -314.00415039 36.3737793 C-226.75292778 -13.95478418 -122.23381516 -41.94467618 0 0 Z M-48.85864258 85.44897461 C-57.56661522 95.23422221 -62.44980625 107.67225517 -62.10473633 120.78491211 C-60.94479315 133.34175732 -55.66347619 145.50338873 -46.15551758 153.96459961 C-35.29097164 162.70923415 -22.4241877 166.5243674 -8.63208008 165.24194336 C3.98773285 163.3715802 15.43125869 156.53669737 23.14135742 146.44897461 C30.72669702 134.27288014 33.51889905 122.67951577 31.14135742 108.44897461 C27.88543803 95.69521782 20.39381352 85.20961646 9.26635742 78.19897461 C-9.74616534 67.47762719 -33.03919233 69.99741856 -48.85864258 85.44897461 Z " fill="#000000" transform="translate(409.858642578125,51.551025390625)"/>
<path d="M0 0 C22.92541504 23.59112582 33.34815653 54.42249648 33 87 C32.1464296 107.58811799 25.16600763 135.83399237 10 151 C85.13856223 152.9967925 159.39564483 118.74248621 219 75 C219.67369629 74.5064502 220.34739258 74.01290039 221.04150391 73.50439453 C227.11531704 69.03805623 233.16976848 64.56335236 238.94921875 59.71875 C249.77612371 50.65600806 257.86650604 46.22459391 272.48046875 46.68359375 C282.45728369 47.58051052 289.5068459 52.02854156 296.25 59.3125 C302.92128048 67.49254419 304.73966466 76.6994848 304 87 C300.8762884 104.78927283 285.51365714 115.47364159 271.89453125 125.58984375 C269.80729367 127.14343708 267.73215317 128.7125483 265.65625 130.28125 C249.77147026 142.21109823 233.1876969 153.04241551 216 163 C215.08202637 163.53222168 215.08202637 163.53222168 214.14550781 164.07519531 C132.66265268 211.07642836 36.06947374 239.11788408 -57.46850586 215.13305664 C-72.01686007 211.20253072 -86.27713291 206.32007416 -100.11743164 200.3659668 C-105.74897071 197.98695547 -111.37809426 196.49922643 -117.3125 195.015625 C-134.06434299 190.40176994 -148.62826946 181.9190354 -162 171 C-162.70125 170.44183594 -163.4025 169.88367188 -164.125 169.30859375 C-181.6275535 154.97056443 -192.95007476 133.44973496 -199 112 C-199.3196875 110.9378125 -199.639375 109.875625 -199.96875 108.78125 C-204.8207163 89.55308724 -203.82521965 66.91299283 -198 48 C-197.79101074 47.31341309 -197.58202148 46.62682617 -197.36669922 45.91943359 C-192.71191844 31.18103781 -185.22740131 17.59490694 -175 6 C-174.26394531 5.12085938 -173.52789062 4.24171875 -172.76953125 3.3359375 C-152.86535026 -19.71784473 -124.55265896 -32.75370519 -94.5 -35.8125 C-58.23060065 -37.64892528 -26.13971928 -25.43204498 0 0 Z M-120.80859375 51.1328125 C-129.47870469 62.47659402 -132.99486151 74.63605617 -131.53515625 88.796875 C-129.53699566 100.75666834 -123.3582968 111.28772774 -114 119 C-102.6517023 127.01167196 -90.48268529 130.36559184 -76.5625 128.5 C-64.64000326 125.93019498 -53.56031447 119.21152095 -46.44921875 109.30078125 C-38.94342951 97.38458216 -36.11216329 84.86093558 -39.125 71.0625 C-42.46624133 58.8165353 -49.24905506 48.78333431 -60 42 C-80.72392409 30.73834664 -104.3905541 33.33533294 -120.80859375 51.1328125 Z " fill="#000000" transform="translate(202,260)"/>
</svg>
