<?xml version="1.0" encoding="UTF-8"?>
<svg version="1.1" xmlns="http://www.w3.org/2000/svg" width="512" height="512">
<path d="M0 0 C1.20398438 0.4125 2.40796875 0.825 3.6484375 1.25 C19.62696961 7.14564287 33.62783809 16.5951878 47 27 C47.63760254 27.49338867 48.27520508 27.98677734 48.93212891 28.49511719 C59.89222183 37.03084519 70.04068894 46.32465594 80 56 C80.56154785 56.54495117 81.1230957 57.08990234 81.70166016 57.65136719 C86.76197119 62.5840279 91.67538378 67.60723528 96.265625 72.984375 C98.25912581 75.30114621 100.31554388 77.55419984 102.375 79.8125 C107.10566133 85.06169925 111.5719095 90.4948064 116 96 C116.9959086 97.22671284 117.99201254 98.45326711 118.98828125 99.6796875 C120.03410618 100.97375471 121.07967644 102.26802777 122.125 103.5625 C122.90822632 104.52494629 122.90822632 104.52494629 123.70727539 105.50683594 C126.53738459 109.02342781 128.95878741 112.53883983 131.25 116.4375 C135.11239759 122.12797412 140.6817989 124.16702689 146.73828125 126.9453125 C163.68910532 134.83389124 178.65493458 148.13097734 192 161 C192.55751953 161.53560547 193.11503906 162.07121094 193.68945312 162.62304688 C210.83976131 179.1826441 224.78393014 198.30984637 236.76757812 218.88549805 C237.63011421 220.36537622 238.51059897 221.83487192 239.40429688 223.29614258 C243.76251417 230.64252057 244.25524964 237.03037766 242.48828125 245.43359375 C240.99866581 249.988545 238.66233437 252.97857414 235 256 C225.23813142 259.25395619 216.86316248 256.24741163 208 252 C195.63129551 246.26499974 195.63129551 246.26499974 182.375 247 C178.06763653 249.55251169 174.60782446 252.54670061 171 256 C170.27683594 256.68320312 169.55367188 257.36640625 168.80859375 258.0703125 C163.03954793 263.66879522 157.98408151 269.7021573 153 276 C152.13718121 277.07198698 151.27388485 278.1435897 150.41015625 279.21484375 C139.82382553 292.42236912 129.95430427 306.03057438 122 321 C121.43410156 321.89332031 120.86820312 322.78664063 120.28515625 323.70703125 C116.46841537 333.4867047 120.09086762 344.32503225 122.4375 354.125 C122.79478935 355.65891517 123.15163367 357.19293406 123.50805664 358.72705078 C125.35369428 366.58466145 127.33949193 374.39493053 129.5 382.171875 C129.70440201 382.90876556 129.90880402 383.64565613 130.11940002 384.40487671 C131.09635843 387.90973414 132.09169898 391.40788952 133.11694336 394.89892578 C137.46075976 410.10469802 136.97537585 421.66164227 133.47460938 436.97851562 C132.15174111 443.39635664 131.27824497 447.7154245 134.88549805 453.4050293 C135.25328369 453.93136963 135.62106934 454.45770996 136 455 C139.9086065 462.8654674 141.56296805 470.41148852 139.4921875 479.140625 C137.91605515 483.30741167 135.42669745 486.22600682 132 489 C129.66503906 489.91650391 129.66503906 489.91650391 127 490 C124.42871094 488.17333984 124.42871094 488.17333984 121.734375 485.4609375 C121.01607513 484.74413315 121.01607513 484.74413315 120.28326416 484.0128479 C119.27437593 482.99928221 118.27286023 481.97833198 117.27832031 480.95068359 C115.75861046 479.3838773 114.21410552 477.84533379 112.6640625 476.30859375 C104.27419286 467.82302152 104.27419286 467.82302152 104 463 C105.1796875 460.97265625 105.1796875 460.97265625 106.875 459.0625 C113.76646455 451.25751573 111.36485475 436.92141318 110.76171875 427.1328125 C109.33404228 414.18277746 102.81899777 404.19017081 95.375 393.75 C94.68148438 392.76362549 93.98796875 391.77725098 93.2734375 390.76098633 C88.47309404 383.96803706 83.55468881 377.26760142 78.45458984 370.69628906 C75 366.20568578 75 366.20568578 75 364 C72.11545751 366.69620201 70.08662967 369.2505072 68.1953125 372.7109375 C67.69692871 373.61956543 67.19854492 374.52819336 66.68505859 375.46435547 C66.17023926 376.42486816 65.65541992 377.38538086 65.125 378.375 C64.59342285 379.36000488 64.0618457 380.34500977 63.51416016 381.35986328 C53.97118389 399.24306719 49.88436332 413.08071762 51.83984375 433.34765625 C51.92625626 434.28500107 52.01266876 435.22234589 52.10169983 436.18809509 C52.37559735 439.14669045 52.65645006 442.10457646 52.9375 445.0625 C53.12219869 447.04748386 53.30644687 449.03250969 53.49023438 451.01757812 C54.29557807 459.68162158 55.12613016 468.34258344 56 477 C56.86625 477.0825 57.7325 477.165 58.625 477.25 C65.25506731 478.72334829 69.12159335 482.72105761 73 488 C75.40221621 492.34686743 75.31877121 496.13873902 75 501 C72.33585656 503.66414344 70.34837398 503.23821113 66.72607422 503.25224304 C65.86771973 503.24505753 65.00936523 503.23787201 64.125 503.23046875 C63.24473145 503.23001053 62.36446289 503.22955231 61.45751953 503.2290802 C59.59471287 503.22605657 57.73190876 503.21816695 55.86914062 503.20581055 C53.01162801 503.18757421 50.15443968 503.1853007 47.296875 503.18554688 C45.48958052 503.18063096 43.68228825 503.17480232 41.875 503.16796875 C41.01664551 503.16685593 40.15829102 503.1657431 39.27392578 503.16459656 C33.23212781 503.11606391 33.23212781 503.11606391 31 502 C30.03610903 499.10832709 29.85940919 497.19810552 29.81323242 494.1875 C29.44450872 478.22802805 27.73309179 462.76793753 25.3125 447 C24.95120485 444.58828431 24.59036971 442.17649967 24.22998047 439.76464844 C22.19085719 426.23272002 20.04318158 412.71968022 17.625 399.25 C17.50412018 398.56873047 17.38324036 397.88746094 17.25869751 397.18554688 C16.13132344 389.7143704 16.13132344 389.7143704 13 383 C10.32701502 382.71094465 7.92164474 382.62577883 5.25 382.6875 C4.0597522 382.70115601 4.0597522 382.70115601 2.84545898 382.71508789 C-5.34427936 382.87924746 -13.46557297 383.69600625 -21.61328125 384.48828125 C-58.35407149 388.03633645 -97.2700619 388.10455315 -133.08300781 378.43774414 C-136.06742053 377.75625509 -138.95591161 377.88512874 -142 378 C-143.67538162 379.67538162 -143.56821547 381.8791064 -143.9375 384.171875 C-144.11023438 385.22890625 -144.28296875 386.2859375 -144.4609375 387.375 C-144.63882813 388.48875 -144.81671875 389.6025 -145 390.75 C-145.35348761 392.93240176 -145.70763131 395.11469738 -146.0625 397.296875 C-146.21847656 398.26979492 -146.37445313 399.24271484 -146.53515625 400.24511719 C-146.83109634 401.9989974 -147.1636752 403.74736932 -147.54418945 405.48486328 C-149.34495111 415.42136387 -147.49744804 425.17058004 -145.3125 434.875 C-145.04284424 436.1228125 -144.77318848 437.370625 -144.49536133 438.65625 C-143.6753328 442.44018194 -142.83810913 446.22003814 -142 450 C-141.50623561 452.27309554 -141.01396866 454.54651704 -140.5234375 456.8203125 C-139.51836296 461.47626206 -138.50324952 466.12985758 -137.47729492 470.78125 C-136.96064447 473.18294783 -136.47652743 475.59004938 -136 478 C-134.824375 478.165 -133.64875 478.33 -132.4375 478.5 C-126.93844304 479.89674093 -123.9259928 483.26843588 -121 488 C-119.8138927 490.98235211 -118.99394499 493.77873267 -119 497 C-119.6336754 498.34932491 -120.29719718 499.6853554 -121 501 C-126.10863896 501.0246501 -131.21724359 501.04283607 -136.32592773 501.05493164 C-138.06519168 501.05997204 -139.80445136 501.0668043 -141.54370117 501.07543945 C-144.03825937 501.08751792 -146.53276173 501.09323108 -149.02734375 501.09765625 C-149.80963852 501.10281754 -150.59193329 501.10797882 -151.39793396 501.11329651 C-153.26567114 501.11349226 -155.13329204 501.06199694 -157 501 C-158 500 -158 500 -158.03515625 496.37109375 C-158.03499512 495.59596436 -158.03483398 494.82083496 -158.03466797 494.0222168 C-158.23919941 475.02770458 -165.39926804 457.85614306 -174.22998047 441.27612305 C-180.85418605 428.42124089 -181.66809906 413.73425998 -183.1875 399.5625 C-183.3659323 397.94459471 -183.54496579 396.32675561 -183.72460938 394.70898438 C-184.15664142 390.80671422 -184.58064178 386.90365162 -185 383 C-186.59643087 384.58454958 -188.19115156 386.17082229 -189.78515625 387.7578125 C-191.11752319 389.08256592 -191.11752319 389.08256592 -192.47680664 390.43408203 C-195.13779349 393.14012671 -197.63543588 395.93516958 -200.09765625 398.8203125 C-202.00118883 401.00136215 -203.96875703 403.11373914 -205.94970703 405.22436523 C-217.76634092 417.87289986 -224.35230878 426.96698883 -224.1953125 444.71484375 C-224.19106766 446.53116051 -224.19106766 446.53116051 -224.18673706 448.38417053 C-224.1755803 452.23538268 -224.15048355 456.08635864 -224.125 459.9375 C-224.1149644 462.55533517 -224.10583956 465.17317401 -224.09765625 467.79101562 C-224.07565567 474.19409042 -224.04222276 480.59702833 -224 487 C-222.32707886 487.69150146 -222.32707886 487.69150146 -220.62036133 488.39697266 C-215.17085998 490.80990851 -212.38387599 494.47292211 -209.5625 499.625 C-208.89668694 502.43621071 -209.16062896 504.25296751 -210 507 C-211 508 -211 508 -214.51000977 508.11352539 C-216.07048422 508.11336626 -217.63096393 508.10767142 -219.19140625 508.09765625 C-220.01124496 508.0962413 -220.83108368 508.09482635 -221.67576599 508.09336853 C-224.30471382 508.08775289 -226.93357773 508.07519779 -229.5625 508.0625 C-231.34049357 508.05748701 -233.11848846 508.05292376 -234.89648438 508.04882812 C-239.26435545 508.03777839 -243.63216348 508.02050331 -248 508 C-248.34962534 506.43937549 -248.68868673 504.87638256 -249.0234375 503.3125 C-249.21341309 502.44238281 -249.40338867 501.57226562 -249.59912109 500.67578125 C-250.1118867 497.2531801 -249.81120154 494.21247518 -249.2890625 490.8125 C-248.49982318 483.13341468 -249.13239249 475.70781123 -250.3125 468.109375 C-250.58606265 466.24611212 -250.85949609 464.38283027 -251.1328125 462.51953125 C-251.56413678 459.63865672 -251.99873564 456.75831735 -252.43652344 453.87841797 C-256.76332017 425.23423868 -251.70499496 408.6454829 -238.875 383.125 C-227.7059903 360.81911008 -223.90781291 347.99398181 -229 323.1875 C-234.30044165 297.02434584 -237.68927029 267.6897874 -222.11328125 244.1484375 C-210.95747881 229.6393192 -196.78476937 222.86585388 -178.95703125 219.41015625 C-149.24261715 216.33018243 -121.36993449 221.52591374 -93.07421875 230.09765625 C-91.88860352 230.45448486 -90.70298828 230.81131348 -89.48144531 231.17895508 C-87.1926125 231.87068211 -84.90655616 232.57169519 -82.62402344 233.28393555 C-32.68961361 248.49962681 48.36307275 231.11653741 94.16845703 207.98193359 C103.51561199 202.97070229 113.34943978 195.59321751 116.61328125 185.01171875 C118.55941894 174.88787119 115.11872826 166.344233 111.66430664 156.94775391 C109.24592575 149.85703625 108.80700288 142.96749732 112 136.0625 C112.37125 135.35222656 112.7425 134.64195312 113.125 133.91015625 C114.20823132 131.89559505 114.20823132 131.89559505 114 129 C112.53082702 127.48312387 112.53082702 127.48312387 110.51171875 126.1015625 C109.75286377 125.54678223 108.99400879 124.99200195 108.2121582 124.42041016 C107.379021 123.8279248 106.54588379 123.23543945 105.6875 122.625 C104.82664795 122.00286621 103.9657959 121.38073242 103.07885742 120.73974609 C95.00669688 114.93578987 86.82921412 109.28812371 78.58105469 103.73779297 C76.80102124 102.53931793 75.02315333 101.33762241 73.24707031 100.13330078 C32.97738722 72.83147166 -10.88830353 43.43615581 -58.75390625 31.71875 C-59.49511719 31.4815625 -60.23632812 31.244375 -61 31 C-61.33 30.34 -61.66 29.68 -62 29 C-58.47851277 24.40675578 -54.46548038 23.76698926 -49 23 C-46.08176409 22.91024904 -43.27117736 23.15062386 -40.375 23.5 C-39.56144043 23.59474609 -38.74788086 23.68949219 -37.90966797 23.78710938 C-9.30681855 27.53085286 18.44041918 39.26306462 45 50 C21.83515236 24.57516722 -13.46601135 9.2543678 -46 0 C-46 -0.66 -46 -1.32 -46 -2 C-31.13547782 -6.38740324 -14.46990114 -5.2261494 0 0 Z " fill="#000000" transform="translate(262,4)"/>
</svg>
