<?xml version="1.0" encoding="UTF-8"?>
<svg version="1.1" xmlns="http://www.w3.org/2000/svg" width="512" height="512">
<path d="M0 0 C0.77839233 -0.00067474 1.55678467 -0.00134949 2.35876465 -0.00204468 C15.23942778 0.01563855 27.63673498 0.83963053 40.3125 3.25 C41.17504395 3.40033691 42.03758789 3.55067383 42.92626953 3.70556641 C75.87867924 9.50581692 110.30419668 21.89593492 138.3125 40.25 C138.91562012 40.64509766 139.51874023 41.04019531 140.14013672 41.44726562 C159.10346432 54.0653905 175.86144237 69.89005086 189.3125 88.25 C189.72854492 88.81638184 190.14458984 89.38276367 190.57324219 89.96630859 C216.44904924 125.72252889 230.17405111 171.46148699 230.55078125 215.48828125 C230.56048447 216.43941299 230.57018768 217.39054474 230.58018494 218.37049866 C230.60501021 221.43454256 230.61770117 224.49836568 230.625 227.5625 C230.62761841 228.60923889 230.63023682 229.65597778 230.63293457 230.73443604 C230.63753397 247.91485391 229.63706363 264.35549079 226.3125 281.25 C226.15233398 282.10062012 225.99216797 282.95124023 225.82714844 283.82763672 C223.26719251 297.11386232 219.36728873 311.20343259 211.3125 322.25 C210.9825 322.25 210.6525 322.25 210.3125 322.25 C210.24518677 320.47677368 210.24518677 320.47677368 210.17651367 318.66772461 C210.05169975 262.09917453 210.05169975 262.09917453 187.3125 212.25 C188.7596825 217.59452007 190.21513388 222.93548755 191.7421875 228.2578125 C194.54687242 238.12312864 197.0252022 248.00884466 199.0625 258.0625 C199.36003174 259.50810303 199.36003174 259.50810303 199.66357422 260.98291016 C202.61208801 276.02310497 203.69661823 290.82895365 203.625 306.125 C203.62284485 306.9582782 203.6206897 307.7915564 203.61846924 308.65008545 C203.56839407 320.72746325 203.31451359 332.4873933 200.3125 344.25 C200.11382324 345.05453613 199.91514648 345.85907227 199.71044922 346.68798828 C195.52254969 363.17294111 189.11812318 377.99042805 178.3125 391.25 C177.63703125 392.08917969 176.9615625 392.92835938 176.265625 393.79296875 C161.17947692 411.54947516 136.4588365 425.64855953 113.3125 429.25 C111.015625 428.81640625 111.015625 428.81640625 109.3125 428.25 C110.18648438 427.46302734 110.18648438 427.46302734 111.078125 426.66015625 C119.12731607 419.0539238 125.22977389 410.45891707 131.3125 401.25 C131.98410156 400.24066406 132.65570313 399.23132813 133.34765625 398.19140625 C148.0040388 374.65439099 153.76501571 345.8228498 153.5625 318.4375 C153.56072754 317.74221191 153.55895508 317.04692383 153.55712891 316.33056641 C153.52578005 305.84316851 152.94467441 295.62046665 151.3125 285.25 C151.21751221 286.11351074 151.12252441 286.97702148 151.0246582 287.86669922 C145.67575117 335.8195714 138.46036337 395.80710165 99.3125 429.25 C87.64744098 438.0747154 75.12227386 442.44821887 60.625 442.4375 C59.73393555 442.43814453 58.84287109 442.43878906 57.92480469 442.43945312 C51.81472737 442.39030442 46.23887962 441.8303679 40.3125 440.25 C41.82183256 436.4597098 43.99451518 434.66322011 47.1875 432.1875 C67.61827079 415.84288337 88.22891658 394.22582132 92.3125 367.25 C93.44705478 355.46377752 92.46674786 345.34035812 88.3125 334.25 C88.3125 333.59 88.3125 332.93 88.3125 332.25 C82.82848336 336.68560169 78.03612218 341.62899007 73.31079102 346.84521484 C68.38563354 352.24828311 63.22542323 357.39755346 58.0078125 362.51733398 C54.84382462 365.64017405 51.79306943 368.79592765 48.89453125 372.16796875 C44.22327225 377.58757781 39.08287514 382.52610767 33.984375 387.5390625 C29.76210938 391.71824378 25.71096738 395.95977544 21.86914062 400.49291992 C20.27146517 402.29631864 18.58089494 403.92769633 16.8125 405.5625 C8.56657743 413.71556308 3.30109488 423.70655132 2.9375 435.3125 C3.16551968 442.49968034 4.48680649 447.56509864 9.375 452.9375 C24.52574554 466.71090504 46.81423257 465.81061391 65.9375 465.5 C68.11977503 465.47987789 70.30206826 465.46163736 72.484375 465.4453125 C77.76082263 465.40183106 83.03657245 465.33538447 88.3125 465.25 C85.28579521 468.58037689 82.25223166 470.58021865 78.28125 472.67578125 C77.69718384 472.9844664 77.11311768 473.29315155 76.51135254 473.6111908 C74.61710681 474.60570735 72.7159898 475.58580343 70.8125 476.5625 C70.1637793 476.89737427 69.51505859 477.23224854 68.84667969 477.57727051 C51.56833448 486.45831437 32.95040564 494.14032383 13.3125 495.25 C11.99765625 495.32927734 11.99765625 495.32927734 10.65625 495.41015625 C-7.86108731 495.98260082 -25.04908176 490.27044007 -39.0390625 477.9609375 C-57.4844898 459.08021988 -65.22222037 435.51738581 -70.6875 410.25 C-83.72208716 423.62354806 -95.15556788 439.84184766 -95.05102539 459.11547852 C-94.75113209 470.70468859 -89.83831476 478.89596448 -81.9140625 487.08203125 C-76.88893243 491.77851358 -71.17386481 495.12436399 -65.25 498.55078125 C-63.9815625 499.39189453 -63.9815625 499.39189453 -62.6875 500.25 C-62.6875 500.91 -62.6875 501.57 -62.6875 502.25 C-82.90519413 507.47951904 -103.69356913 509.9630385 -122.5 499.125 C-135.07360697 490.4989208 -141.46181662 476.52181315 -144.55371094 461.93212891 C-148.58283914 438.47075766 -146.2222248 413.40758611 -141.6875 390.25 C-141.34696599 388.25121344 -141.00929269 386.25188925 -140.6875 384.25 C-141.52410156 384.75789063 -142.36070312 385.26578125 -143.22265625 385.7890625 C-158.66166657 394.98920509 -177.56057631 404.50796438 -196.0078125 400.78125 C-200.98927233 399.1902134 -204.56355061 396.42892246 -207.6875 392.25 C-210.19195409 387.34998113 -210.25811451 382.47025055 -208.6875 377.25 C-206.0604681 373.05483214 -202.66661531 370.13291651 -198.6875 367.25 C-198.97625 365.98542969 -199.265 364.72085937 -199.5625 363.41796875 C-199.93766798 361.75785045 -200.31265876 360.0976921 -200.6875 358.4375 C-200.97367188 357.18743164 -200.97367188 357.18743164 -201.265625 355.91210938 C-201.44609375 355.10966797 -201.6265625 354.30722656 -201.8125 353.48046875 C-201.98007813 352.74207764 -202.14765625 352.00368652 -202.3203125 351.24291992 C-202.6875 349.25 -202.6875 349.25 -202.6875 346.25 C-198.12735491 348.27910437 -194.50709576 351.46738543 -190.63671875 354.5703125 C-184.38740476 358.12952444 -177.54752557 355.79741444 -170.9375 354.1875 C-170.02081543 353.96489502 -169.10413086 353.74229004 -168.15966797 353.51293945 C-150.71458645 349.1134189 -125.60226081 342.15902457 -115.29296875 326.07421875 C-112.49823124 320.67237628 -111.27645196 316.31295863 -111.6875 310.25 C-113.51592766 305.06945496 -115.9407708 302.92003518 -120.6875 300.25 C-142.85788632 292.85987123 -175.3729133 306.09999837 -194.88061523 315.53320312 C-196.6875 316.25 -196.6875 316.25 -199.6875 316.25 C-199.76790527 316.93626465 -199.84831055 317.6225293 -199.93115234 318.32958984 C-200.29936489 321.42919361 -200.68076017 324.52703442 -201.0625 327.625 C-201.18882812 328.70523437 -201.31515625 329.78546875 -201.4453125 330.8984375 C-201.57421875 331.9296875 -201.703125 332.9609375 -201.8359375 334.0234375 C-201.95114746 334.97653809 -202.06635742 335.92963867 -202.18505859 336.91162109 C-202.6875 339.25 -202.6875 339.25 -204.6875 341.25 C-205.28437622 340.42592651 -205.28437622 340.42592651 -205.89331055 339.58520508 C-207.71595471 337.07427118 -209.545403 334.56837162 -211.375 332.0625 C-212.00083984 331.19818359 -212.62667969 330.33386719 -213.27148438 329.44335938 C-218.85064962 321.07961249 -218.85064962 321.07961249 -227.21875 316.28125 C-228.53951341 316.08876355 -229.8626931 315.91233818 -231.1875 315.75 C-246.75330424 313.30648931 -262.56760729 306.7696883 -272.6875 294.25 C-281.35130004 282.23119766 -283.28239988 269.78471139 -281.6875 255.25 C-278.57616364 238.92033952 -267.20128816 226.46079374 -255.6875 215.25 C-255.21586426 214.7557251 -254.74422852 214.2614502 -254.25830078 213.75219727 C-249.6045732 208.92582463 -244.56370152 204.86817251 -239.1875 200.875 C-238.31327393 200.22233154 -237.43904785 199.56966309 -236.53833008 198.8972168 C-229.19220375 193.48332887 -221.64146128 188.7175543 -213.6875 184.25 C-213.06053223 183.8792334 -212.43356445 183.5084668 -211.78759766 183.12646484 C-206.90277322 180.25 -206.90277322 180.25 -204.6875 180.25 C-204.61273438 179.70214844 -204.53796875 179.15429688 -204.4609375 178.58984375 C-201.12899748 158.50020542 -189.85162584 139.44392368 -176.6875 124.25 C-176.03265625 123.49332031 -175.3778125 122.73664063 -174.703125 121.95703125 C-165.46623083 112.06881762 -153.15147244 104.38522466 -140.6875 99.25 C-139.6975 99.25 -138.7075 99.25 -137.6875 99.25 C-137.77451172 98.42822266 -137.77451172 98.42822266 -137.86328125 97.58984375 C-138.85735701 80.12251255 -127.98131744 62.47362487 -116.84082031 49.76782227 C-115.47057004 48.2480426 -114.0836165 46.74601931 -112.6875 45.25 C-111.87410156 44.36699219 -111.06070313 43.48398437 -110.22265625 42.57421875 C-100.04754213 31.97033159 -88.57715266 24.11853464 -75.6875 17.25 C-74.72457031 16.71632813 -73.76164063 16.18265625 -72.76953125 15.6328125 C-50.3643673 3.70399418 -25.06155351 0.01954724 0 0 Z M-179.6875 161.25 C-182.53746111 165.03625958 -184.09524796 168.48132727 -183.4375 173.25 C-183.19 174.24 -182.9425 175.23 -182.6875 176.25 C-173.81880167 179.33476464 -165.08444807 178.4329706 -155.9375 177 C-154.64694702 176.80083984 -154.64694702 176.80083984 -153.33032227 176.59765625 C-139.73077705 175.00262056 -139.73077705 175.00262056 -128.6875 168.25 C-154.38639405 156.26225052 -154.38639405 156.26225052 -179.6875 161.25 Z " fill="#000000" transform="translate(281.6875,2.75)"/>
</svg>
