<?xml version="1.0" encoding="UTF-8"?>
<svg version="1.1" xmlns="http://www.w3.org/2000/svg" width="512" height="512">
<path d="M0 0 C6.15418394 4.89327031 9.25130126 11.17187252 11.703125 18.52734375 C12.55030173 27.65185383 11.48262321 35.23787653 6.08984375 42.78515625 C0.32836815 49.70914688 -4.35461834 52.29177958 -13.296875 54.52734375 C-13.296875 69.04734375 -13.296875 83.56734375 -13.296875 98.52734375 C-1.83956171 95.21438569 9.60236472 91.89125792 20.9831543 88.32446289 C46.64430367 80.29142372 46.64430367 80.29142372 59.703125 79.52734375 C60.57453125 79.47449219 61.4459375 79.42164062 62.34375 79.3671875 C74.24306074 78.98494707 82.86204544 82.57526811 91.703125 90.52734375 C95.34142282 94.04920882 98.8773308 97.67143448 102.41723633 101.29174805 C110.67677302 109.67172666 118.6774167 116.84933794 130.703125 118.52734375 C130.703125 115.55734375 130.703125 112.58734375 130.703125 109.52734375 C134.663125 109.52734375 138.623125 109.52734375 142.703125 109.52734375 C143.033125 111.50734375 143.363125 113.48734375 143.703125 115.52734375 C155.89762028 109.95451224 155.89762028 109.95451224 166.41796875 101.77734375 C167.703125 100.52734375 167.703125 100.52734375 168.703125 100.52734375 C168.46521339 110.69265817 165.06348917 119.33054323 157.703125 126.52734375 C152.90749829 129.89617243 148.56153203 132.63812125 142.703125 133.52734375 C142.703125 136.16734375 142.703125 138.80734375 142.703125 141.52734375 C146.993125 141.52734375 151.283125 141.52734375 155.703125 141.52734375 C163.86024007 165.68761254 171.67205118 189.95161059 179.41958618 214.24589539 C183.65909733 227.53417002 187.931481 240.81187122 192.203125 254.08984375 C193.65119161 258.59109762 195.09915816 263.09238362 196.546875 267.59375 C196.88875351 268.6567482 197.23063202 269.7197464 197.58287048 270.81495667 C201.30159034 282.38192714 205.00250481 293.95457093 208.703125 305.52734375 C222.068125 306.02234375 222.068125 306.02234375 235.703125 306.52734375 C233.0055126 317.31779336 220.42612945 326.49052562 211.18798828 332.07763672 C191.20994193 343.52385319 168.25782986 349.58946686 145.25 349.73046875 C144.08883163 349.7410582 144.08883163 349.7410582 142.90420532 349.75186157 C104.0369835 350.02578341 69.51099779 344.98347508 39.875 317.70703125 C32.703125 310.50935814 32.703125 310.50935814 32.703125 306.52734375 C42.933125 306.52734375 53.163125 306.52734375 63.703125 306.52734375 C65.188125 301.08234375 65.188125 301.08234375 66.703125 295.52734375 C67.5155149 292.91407402 68.34928683 290.30731749 69.20825195 287.70898438 C69.55597404 286.65312511 69.55597404 286.65312511 69.91072083 285.57593536 C70.66831472 283.27760899 71.42984856 280.98060941 72.19140625 278.68359375 C72.732378 277.04476564 73.27307717 275.40584754 73.81352234 273.7668457 C74.95494002 270.30685811 76.09800031 266.84741968 77.24243164 263.38842773 C79.02723316 257.9936584 80.80806169 252.59758352 82.58789062 247.20117188 C82.88178114 246.31011497 83.17567165 245.41905807 83.47846794 244.50099945 C84.06867829 242.71147184 84.65887244 240.92193889 85.24905014 239.13240051 C86.12608439 236.4733991 87.00345284 233.81450816 87.88088989 231.15563965 C92.18158814 218.12150748 96.45983767 205.0802971 100.703125 192.02734375 C100.9717334 191.20179993 101.2403418 190.3762561 101.51708984 189.5256958 C104.27075989 181.06078053 107.00679026 172.5904009 109.72265625 164.11328125 C110.20116284 162.62174189 110.67967823 161.13020536 111.15820312 159.63867188 C112.03449196 156.90682203 112.90646667 154.17365339 113.77539062 151.43945312 C114.14986328 150.26962891 114.52433594 149.09980469 114.91015625 147.89453125 C115.2347583 146.87472168 115.55936035 145.85491211 115.89379883 144.80419922 C116.703125 142.52734375 116.703125 142.52734375 117.703125 141.52734375 C119.88951953 141.45475429 122.07812889 141.44360592 124.265625 141.46484375 C125.46316406 141.47386719 126.66070312 141.48289063 127.89453125 141.4921875 C128.82136719 141.50378906 129.74820312 141.51539063 130.703125 141.52734375 C130.703125 139.54734375 130.703125 137.56734375 130.703125 135.52734375 C129.5275 135.58921875 128.351875 135.65109375 127.140625 135.71484375 C109.15313934 135.57431652 94.89771575 127.62898172 80.28149414 117.94116211 C73.67241641 113.62448078 66.79920769 110.32792409 58.703125 111.52734375 C47.75184519 113.84767912 38.03705103 119.91204415 28.28027344 125.15087891 C4.23333347 137.99444158 4.23333347 137.99444158 -5.96704102 139.07055664 C-6.7777858 139.15713028 -7.58853058 139.24370392 -8.42384338 139.332901 C-9.04194382 139.39706711 -9.66004425 139.46123322 -10.296875 139.52734375 C-10.46938181 151.0392096 -10.56809003 162.54931996 -10.57928181 174.06253433 C-10.58665835 179.41218899 -10.61698264 184.75941209 -10.70483398 190.10839844 C-11.0893435 214.58203566 -11.18668569 235.51571929 2.07649231 256.80657959 C2.6132811 257.70443176 3.15006989 258.60228394 3.703125 259.52734375 C4.05714449 260.09605194 4.41116398 260.66476013 4.77591133 261.2507019 C8.02450019 266.9514176 8.2520606 271.87977612 8.15722656 278.34960938 C8.15781067 279.40416321 8.15839478 280.45871704 8.15899658 281.54522705 C8.15622431 285.00835837 8.12517171 288.47061399 8.09375 291.93359375 C8.08628459 294.34354177 8.08059308 296.75349588 8.07659912 299.16345215 C8.06136658 305.48959269 8.0221047 311.81536272 7.9777832 318.14135742 C7.93677947 324.60330189 7.91857718 331.06530654 7.8984375 337.52734375 C7.85560852 350.19419895 7.78527756 362.86068249 7.703125 375.52734375 C21.893125 375.52734375 36.083125 375.52734375 50.703125 375.52734375 C51.033125 382.12734375 51.363125 388.72734375 51.703125 395.52734375 C53.74990331 399.70181254 54.94540706 401.8529269 57.890625 405.08984375 C59.17697972 406.66308334 60.46210102 408.2373321 61.74609375 409.8125 C62.40528809 410.58996582 63.06448242 411.36743164 63.74365234 412.16845703 C66.91497934 415.98621948 69.79360424 420.00888324 72.703125 424.02734375 C73.8565243 425.59749292 75.01147878 427.16650085 76.16796875 428.734375 C76.74401855 429.51635254 77.32006836 430.29833008 77.91357422 431.10400391 C79.77726324 433.62773886 81.6477548 436.14632101 83.51953125 438.6640625 C84.14666016 439.5096875 84.77378906 440.3553125 85.41992188 441.2265625 C86.61019943 442.83123299 87.80274092 444.43422786 88.99804688 446.03515625 C89.54138672 446.76863281 90.08472656 447.50210937 90.64453125 448.2578125 C91.11576416 448.89098389 91.58699707 449.52415527 92.07250977 450.17651367 C94.40785866 453.5433462 96.5314602 457.05268006 98.703125 460.52734375 C24.453125 460.52734375 -49.796875 460.52734375 -126.296875 460.52734375 C-122.92729061 453.78817496 -119.54949213 447.47584849 -115.546875 441.15234375 C-114.40763907 439.33279147 -113.269691 437.51243241 -112.1328125 435.69140625 C-111.52276367 434.71461914 -110.91271484 433.73783203 -110.28417969 432.73144531 C-106.53690152 426.68976489 -102.85668113 420.60725411 -99.171875 414.52734375 C-98.43002279 413.30419329 -97.68816103 412.08104863 -96.94628906 410.85791016 C-88.85486485 397.51187089 -88.1895201 394.27289092 -87.296875 375.52734375 C-71.126875 375.52734375 -54.956875 375.52734375 -38.296875 375.52734375 C-38.49410156 367.98117187 -38.69132813 360.435 -38.89453125 352.66015625 C-38.98167241 347.80182611 -39.06351744 342.94449559 -39.12695312 338.0859375 C-39.22754984 330.41830788 -39.34483658 322.75421209 -39.5793457 315.08935547 C-41.03831905 266.14033561 -41.03831905 266.14033561 -28.62729263 246.01789093 C-17.38896318 227.59839849 -19.13497904 207.49303984 -19.66601562 186.54504395 C-19.78183178 181.22060316 -19.79707877 175.8958163 -19.82226562 170.5703125 C-19.88530265 160.22008386 -20.05456525 149.87482616 -20.296875 139.52734375 C-21.37541748 139.5442627 -22.45395996 139.56118164 -23.56518555 139.57861328 C-27.71147365 139.5216476 -31.21225274 138.6961416 -35.109375 137.40234375 C-35.86347656 137.15299072 -36.61757812 136.9036377 -37.39453125 136.64672852 C-48.3011325 132.76407399 -58.26773199 126.77625574 -68.34204102 121.14868164 C-84.32713216 112.0740129 -84.32713216 112.0740129 -102.07421875 112.3359375 C-108.48078606 114.76891773 -113.90833085 118.16196025 -119.43383789 122.14477539 C-134.10694549 132.63998604 -148.59367017 135.79289182 -166.296875 135.52734375 C-166.791875 138.49734375 -166.791875 138.49734375 -167.296875 141.52734375 C-163.006875 141.52734375 -158.716875 141.52734375 -154.296875 141.52734375 C-151.28969918 148.81299449 -148.70459394 156.14439931 -146.3125 163.65234375 C-145.9399559 164.81172958 -145.5674118 165.97111542 -145.18357849 167.16563416 C-144.1771229 170.30022357 -143.17382446 173.43580084 -142.17202377 176.57188034 C-141.11437666 179.8801972 -140.05267332 183.18721209 -138.99145508 186.49438477 C-137.04248136 192.57022815 -135.09707826 198.64720772 -133.15328884 204.72471142 C-131.0987065 211.14817341 -129.03966573 217.57020352 -126.98046875 223.9921875 C-124.03916062 233.16771452 -121.10377268 242.34511859 -118.17300415 251.52401733 C-116.19068808 257.73197614 -114.20458151 263.93870803 -112.21601868 270.14466858 C-110.88962723 274.28597522 -109.5656772 278.42805949 -108.24234009 282.57034302 C-107.61684642 284.52661328 -106.99037645 286.48257168 -106.36288452 288.4382019 C-105.50487097 291.11290224 -104.65042301 293.78871563 -103.796875 296.46484375 C-103.54150467 297.25802505 -103.28613434 298.05120636 -103.02302551 298.86842346 C-101.296875 304.29915883 -101.296875 304.29915883 -101.296875 306.52734375 C-92.056875 306.52734375 -82.816875 306.52734375 -73.296875 306.52734375 C-79.48131133 321.98843458 -96.44373422 332.16388183 -111.14941406 338.63232422 C-148.02182437 354.00002046 -195.84746353 355.8286804 -233.359375 340.9609375 C-250.26556129 333.9573459 -265.23397163 324.38324257 -276.296875 309.52734375 C-276.296875 308.53734375 -276.296875 307.54734375 -276.296875 306.52734375 C-266.066875 306.52734375 -255.836875 306.52734375 -245.296875 306.52734375 C-244.636875 303.55734375 -243.976875 300.58734375 -243.296875 297.52734375 C-242.77687018 295.72163437 -242.22863513 293.92356091 -241.63964844 292.13916016 C-241.32405975 291.17578735 -241.00847107 290.21241455 -240.68331909 289.21984863 C-240.34438629 288.19983765 -240.00545349 287.17982666 -239.65625 286.12890625 C-239.29773956 285.03815796 -238.93922913 283.94740967 -238.56985474 282.8236084 C-237.39940806 279.26522928 -236.22309507 275.70881817 -235.046875 272.15234375 C-234.22623843 269.66015374 -233.40609408 267.1678016 -232.58642578 264.67529297 C-230.9337521 259.65023374 -229.27942304 254.62572433 -227.62402344 249.6015625 C-224.72929443 240.80952857 -221.86193259 232.00868379 -219.00149536 223.20544434 C-217.61290028 218.93213683 -216.22245333 214.65943208 -214.83203125 210.38671875 C-214.55352829 209.53080139 -214.27502533 208.67488403 -213.98808289 207.79302979 C-210.55958612 197.25845781 -207.122569 186.72666587 -203.68438721 176.19525146 C-202.97574686 174.02459028 -202.2672077 171.85389607 -201.55877686 169.6831665 C-200.57203375 166.65977433 -199.58490544 163.6365082 -198.59765625 160.61328125 C-198.30765244 159.72457336 -198.01764862 158.83586548 -197.71885681 157.92022705 C-195.93156188 152.44913337 -194.12182182 146.98599766 -192.296875 141.52734375 C-187.676875 141.52734375 -183.056875 141.52734375 -178.296875 141.52734375 C-178.22200464 136.90500137 -178.22200464 136.90500137 -179.296875 132.52734375 C-181.35258771 130.92496507 -183.45151753 129.98450041 -185.8125 128.88671875 C-193.02506283 124.94022211 -198.0012961 117.28985044 -200.296875 109.52734375 C-200.8362204 106.49871191 -201.10138463 103.60631702 -201.296875 100.52734375 C-200.83539063 100.89085937 -200.37390625 101.254375 -199.8984375 101.62890625 C-193.43920677 106.60736472 -186.63768148 110.95796078 -179.296875 114.52734375 C-178.966875 112.87734375 -178.636875 111.22734375 -178.296875 109.52734375 C-174.666875 109.52734375 -171.036875 109.52734375 -167.296875 109.52734375 C-167.296875 112.49734375 -167.296875 115.46734375 -167.296875 118.52734375 C-165.33557914 118.34904413 -163.37773878 118.13271108 -161.421875 117.90234375 C-160.33132812 117.78632813 -159.24078125 117.6703125 -158.1171875 117.55078125 C-148.01213054 114.84370055 -141.30792228 108.00073982 -134.296875 100.58984375 C-124.68255922 90.47227863 -114.58246782 80.63071305 -100.03515625 79.32421875 C-82.50101357 78.98539474 -65.85973549 84.42115016 -49.296875 89.52734375 C-46.08729735 90.50901711 -42.87719456 91.48894551 -39.66674805 92.46777344 C-37.67487259 93.07664505 -35.68408738 93.68909844 -33.69458008 94.30566406 C-32.79634521 94.58249023 -31.89811035 94.85931641 -30.97265625 95.14453125 C-29.7957019 95.50973877 -29.7957019 95.50973877 -28.5949707 95.88232422 C-26.19401826 96.55621313 -23.74218033 97.03828268 -21.296875 97.52734375 C-21.296875 83.33734375 -21.296875 69.14734375 -21.296875 54.52734375 C-23.606875 54.19734375 -25.916875 53.86734375 -28.296875 53.52734375 C-37.7004573 50.06200979 -42.69860227 44.24368985 -47.296875 35.52734375 C-49.56462445 28.72409539 -49.47165142 19.26926611 -46.734375 12.58984375 C-41.84799509 3.54918964 -35.16948058 -2.09256619 -25.28125 -5.08203125 C-16.23216294 -6.8633476 -7.73315518 -4.95816242 0 0 Z M-184.296875 153.52734375 C-194.61989031 185.06887312 -194.61989031 185.06887312 -204.91015625 216.62109375 C-205.18876495 217.47720749 -205.46737366 218.33332123 -205.75442505 219.21537781 C-207.13188917 223.44900317 -208.50830898 227.68296597 -209.88378906 231.91723633 C-213.07964046 241.74969422 -216.29696244 251.57482681 -219.53331947 261.39403343 C-220.79291286 265.21713456 -222.0502627 269.04097441 -223.30772305 272.86477757 C-224.33798478 275.99675076 -225.3705415 279.12794157 -226.40597534 282.25820923 C-227.55843251 285.74247385 -228.70552521 289.22846321 -229.8515625 292.71484375 C-230.20081284 293.76580734 -230.55006317 294.81677094 -230.90989685 295.89958191 C-231.22564163 296.863423 -231.54138641 297.8272641 -231.86669922 298.8203125 C-232.14424042 299.66102295 -232.42178162 300.5017334 -232.70773315 301.36791992 C-233.42847696 303.63665595 -233.42847696 303.63665595 -233.296875 306.52734375 C-215.146875 306.52734375 -196.996875 306.52734375 -178.296875 306.52734375 C-178.296875 256.03734375 -178.296875 205.54734375 -178.296875 153.52734375 C-180.276875 153.52734375 -182.256875 153.52734375 -184.296875 153.52734375 Z M-167.296875 153.52734375 C-167.296875 204.01734375 -167.296875 254.50734375 -167.296875 306.52734375 C-149.476875 306.52734375 -131.656875 306.52734375 -113.296875 306.52734375 C-116.2981606 296.32297271 -119.3105836 286.17037109 -122.59765625 276.0625 C-123.20124504 274.19625055 -123.80483262 272.3300007 -124.40837002 270.46373463 C-125.04082486 268.5094272 -125.67435242 266.55547073 -126.30822754 264.60162354 C-128.31294647 258.42209668 -130.31120851 252.24048053 -132.30986404 246.05899048 C-132.76251309 244.65914143 -133.21524914 243.2593205 -133.66807175 241.85952759 C-136.75799287 232.30760195 -139.83250539 222.75091824 -142.88671875 213.1875 C-143.24353226 212.0703511 -143.60034576 210.95320221 -143.9679718 209.80220032 C-145.62068181 204.62545671 -147.27107451 199.44798357 -148.91918945 194.26977539 C-153.26100878 180.64924981 -157.7455564 167.07925706 -162.296875 153.52734375 C-163.946875 153.52734375 -165.596875 153.52734375 -167.296875 153.52734375 Z M125.703125 153.52734375 C117.54845487 177.93604612 109.44217318 202.36044777 101.38427734 226.80126953 C100.17802312 230.45962034 98.97027767 234.11747365 97.76123047 237.77490234 C90.20546725 260.63327408 82.81831799 283.52738153 75.703125 306.52734375 C93.853125 306.52734375 112.003125 306.52734375 130.703125 306.52734375 C130.703125 256.03734375 130.703125 205.54734375 130.703125 153.52734375 C129.053125 153.52734375 127.403125 153.52734375 125.703125 153.52734375 Z M142.703125 153.52734375 C142.703125 204.01734375 142.703125 254.50734375 142.703125 306.52734375 C160.193125 306.52734375 177.683125 306.52734375 195.703125 306.52734375 C194.15792675 299.40363111 194.15792675 299.40363111 192.18530273 292.48144531 C191.89931213 291.59003342 191.61332153 290.69862152 191.31866455 289.78019714 C191.01112244 288.83566177 190.70358032 287.8911264 190.38671875 286.91796875 C190.05847107 285.89854691 189.73022339 284.87912506 189.39202881 283.82881165 C188.31191861 280.47711892 187.22621702 277.12726452 186.140625 273.77734375 C185.37822463 271.41412221 184.61626927 269.05075706 183.85473633 266.68725586 C182.26886812 261.76667662 180.68107987 256.84672343 179.09179688 251.92724609 C175.34310773 240.3195865 171.61659949 228.70481017 167.890625 217.08984375 C167.53895264 215.9941507 167.18728027 214.89845764 166.82495117 213.76956177 C160.38689154 193.70897081 154.01862569 173.62683714 147.703125 153.52734375 C146.053125 153.52734375 144.403125 153.52734375 142.703125 153.52734375 Z " fill="#000000" transform="translate(276.296875,28.47265625)"/>
</svg>
