<?xml version="1.0" encoding="UTF-8"?>
<svg version="1.1" xmlns="http://www.w3.org/2000/svg" width="512" height="512">
<path d="M0 0 C2.58258467 1.15471638 5.184394 2.25496387 7.80224609 3.32714844 C8.83285156 3.75833984 8.83285156 3.75833984 9.88427734 4.19824219 C31.69390058 11.36021494 60.77994698 2.11222378 82.64648438 -1.85351562 C98.56715367 -4.71613644 115.74899078 -7.20019538 129.98974609 1.88964844 C127.26838529 4.78763978 124.61573538 6.9077609 121.19287109 8.92089844 C119.77216309 9.75729858 119.77216309 9.75729858 118.32275391 10.6105957 C117.30536133 11.19768311 116.28796875 11.78477051 115.23974609 12.38964844 C114.18368164 13.00187256 113.12761719 13.61409668 112.03955078 14.24487305 C104.54916621 18.53704739 96.95848191 22.58664871 89.23974609 26.45214844 C87.8151709 27.16564453 87.8151709 27.16564453 86.36181641 27.89355469 C79.68473552 31.17958401 72.8867951 34.09744627 65.98974609 36.88964844 C65.98974609 40.9409661 66.7469667 44.3139436 67.79052734 48.17871094 C67.98286453 48.9029274 68.17520172 49.62714386 68.37336731 50.37330627 C69.00966565 52.75560004 69.6551695 55.13526114 70.30224609 57.51464844 C70.52128601 58.32656647 70.74032593 59.1384845 70.96600342 59.9750061 C74.74910405 73.9589735 79.00853427 87.75616071 83.5847168 101.49951172 C83.81301682 102.18665756 84.04131683 102.87380341 84.27653503 103.58177185 C84.89321953 105.43208255 85.51573483 107.28044705 86.13867188 109.12866211 C86.98974609 111.88964844 86.98974609 111.88964844 86.98974609 113.88964844 C82.25776485 115.33258442 78.58266257 114.57419774 73.98974609 112.88964844 C70.40397407 110.85508814 67.21009866 108.45674406 63.98974609 105.88964844 C63.24853516 105.3134375 62.50732422 104.73722656 61.74365234 104.14355469 C55.26145219 98.77060803 50.33004581 92.30957121 45.29785156 85.61962891 C44.12018051 84.06214904 42.91775698 82.5234599 41.71240234 80.98730469 C37.12711292 75.07534924 33.00354807 68.94920684 28.98974609 62.63964844 C28.46823975 61.83164795 27.9467334 61.02364746 27.40942383 60.19116211 C24.95248946 56.31392726 22.75042477 52.53562687 20.99755859 48.28808594 C17.90206741 40.90501694 17.90206741 40.90501694 11.98876953 35.80517578 C6.657676 33.8449807 1.13011341 33.07985316 -4.48144531 32.35498047 C-8.4681039 31.82927331 -12.42908157 31.19180543 -16.39697266 30.54199219 C-33.17375481 27.83388492 -49.60503028 25.7109269 -66.63525391 25.70214844 C-68.52244141 25.6837793 -68.52244141 25.6837793 -70.44775391 25.66503906 C-79.85364549 25.65024992 -88.38131698 25.71384235 -96.01025391 31.88964844 C-101.47686444 37.92177041 -100.52232884 46.08107268 -100.17626953 53.765625 C-98.85934513 70.61451067 -89.44790793 87.53941003 -81.76025391 102.26464844 C-81.3604834 103.03067383 -80.96071289 103.79669922 -80.54882812 104.5859375 C-78.02354622 109.30188838 -75.20390599 113.59747063 -72.01025391 117.88964844 C-66.16300053 110.18190535 -66.57793201 98.47381524 -65.88525391 89.20214844 C-65.75570312 87.55956055 -65.75570312 87.55956055 -65.62353516 85.88378906 C-65.41410892 83.21942189 -65.2097614 80.55477346 -65.01025391 77.88964844 C-54.44766032 82.00124021 -45.36991436 90.50784981 -40.75244141 100.94824219 C-35.11647178 115.69075221 -38.62189739 130.19998191 -42.54370117 144.88745117 C-43.3374642 148.29386176 -43.69905614 151.46467869 -43.01025391 154.88964844 C-41.37653012 157.36430237 -39.30128689 159.09352896 -37.01025391 160.95214844 C-36.45724609 161.42974609 -35.90423828 161.90734375 -35.33447266 162.39941406 C-34.18366943 163.39016304 -33.02474934 164.37154788 -31.85864258 165.34423828 C-25.79432549 170.41452321 -19.95612945 175.72664751 -14.19775391 181.13964844 C-13.50560791 181.79006104 -12.81346191 182.44047363 -12.1003418 183.1105957 C-4.37120714 190.4006259 3.30867431 197.72658776 10.20068359 205.82714844 C11.50785665 207.33410777 12.85191413 208.80929434 14.21630859 210.26464844 C28.67080194 225.68277467 46.488954 246.5312413 47.48974609 268.63964844 C47.19819514 275.38419373 44.98098792 279.75270599 40.42724609 284.63964844 C30.77435581 291.70565994 19.30448744 292.11516032 7.85205078 290.60839844 C-19.02017228 286.31469779 -43.89915219 272.56647616 -67.01025391 258.88964844 C-67.79577637 258.42655273 -68.58129883 257.96345703 -69.390625 257.48632812 C-82.86825561 249.50618996 -95.97235267 240.90619886 -108.52978516 231.53808594 C-109.62987915 230.7287561 -109.62987915 230.7287561 -110.75219727 229.90307617 C-112.1098047 228.90005958 -113.45704814 227.88274536 -114.78979492 226.84692383 C-124.57898061 219.64118763 -137.37707991 218.01896677 -149.01025391 215.51464844 C-202.43823905 203.74767072 -202.43823905 203.74767072 -213.01025391 187.88964844 C-213.13525391 184.70214844 -213.13525391 184.70214844 -213.01025391 181.88964844 C-211.7430249 182.15442993 -211.7430249 182.15442993 -210.45019531 182.42456055 C-183.9368362 188.45604211 -183.9368362 188.45604211 -157.01025391 187.88964844 C-157.48333984 187.46296875 -157.95642578 187.03628906 -158.44384766 186.59667969 C-176.81637616 169.22694027 -185.92467177 144.89148752 -187.21337891 119.95996094 C-187.64841001 83.34484327 -173.4480811 50.20743466 -148.61181641 23.48730469 C-130.96276278 5.86475114 -109.94404605 -5.09904626 -86.01025391 -11.11035156 C-85.08083984 -11.34882813 -84.15142578 -11.58730469 -83.19384766 -11.83300781 C-55.03469225 -18.26530219 -25.77427428 -11.56693502 0 0 Z " fill="#000000" transform="translate(213.01025390625,37.1103515625)"/>
<path d="M0 0 C0.82967285 0.45818115 1.6593457 0.9163623 2.51416016 1.38842773 C4.0163036 2.22822453 5.50848126 3.08632479 6.98583984 3.96899414 C13.54796682 7.64809082 20.30722846 8.35755821 27.69921875 9.08984375 C28.79917679 9.20135773 28.79917679 9.20135773 29.9213562 9.31512451 C33.99238796 9.72322631 38.06516239 10.10953052 42.1394043 10.48413086 C93.63542058 15.2274987 93.63542058 15.2274987 107.30859375 27.1484375 C109.13535786 29.69872336 109.25871842 32.02013963 109.69921875 35.08984375 C108.94785645 35.01983154 108.19649414 34.94981934 107.42236328 34.87768555 C99.16095938 34.16822102 90.93929333 33.90356245 82.65087891 33.90454102 C80.56913251 33.90233837 78.48790462 33.88404304 76.40625 33.86523438 C68.63413211 33.83380886 61.284893 34.32118919 53.69921875 36.08984375 C54.54484375 36.85167969 55.39046875 37.61351562 56.26171875 38.3984375 C78.25233668 58.34001823 91.93988385 81.45698739 93.85888672 111.59765625 C95.48227133 147.27170153 84.10357497 181.22604577 60.38671875 208.02734375 C58.8315026 209.72155898 57.26887228 211.40899566 55.69921875 213.08984375 C54.92707031 213.92773438 54.15492188 214.765625 53.359375 215.62890625 C47.07241291 222.21136574 40.2813707 227.15652151 32.69921875 232.08984375 C32.03664063 232.56035156 31.3740625 233.03085937 30.69140625 233.515625 C12.41909471 246.09320267 -11.8045913 250.5039135 -33.48828125 250.40234375 C-34.76058594 250.3967041 -36.03289062 250.39106445 -37.34375 250.38525391 C-50.27943515 250.21928538 -61.8099553 248.51323569 -74.15039062 244.73022461 C-101.61494259 236.34898849 -125.26141831 245.84475697 -151.64453125 254.45581055 C-176.8169064 262.64825084 -176.8169064 262.64825084 -189.67578125 262.46484375 C-190.51238281 262.47644531 -191.34898437 262.48804688 -192.2109375 262.5 C-197.65130576 262.47437817 -201.4491887 261.56140977 -206.30078125 259.08984375 C-189.4578704 241.70361319 -168.37514795 227.82537344 -147.30078125 216.08984375 C-147.92700103 212.39947155 -148.95934264 209.20140138 -150.41796875 205.7578125 C-151.07285278 204.20682861 -151.07285278 204.20682861 -151.7409668 202.62451172 C-152.21445557 201.51994629 -152.68794434 200.41538086 -153.17578125 199.27734375 C-153.6653833 198.1289502 -154.15498535 196.98055664 -154.65942383 195.79736328 C-161.31829975 180.27097964 -168.1577132 164.78316056 -176.01635742 149.81982422 C-177.46749133 147.01447814 -178.30078125 145.30178339 -178.30078125 142.08984375 C-174.23424375 140.056575 -169.60374714 141.19210266 -165.30078125 142.08984375 C-143.66080695 150.03616226 -126.14134062 170.39294532 -112.30078125 188.08984375 C-111.01364232 189.63362081 -109.72631481 191.17726522 -108.4309082 192.71411133 C-96.30078125 207.10529215 -96.30078125 207.10529215 -96.30078125 210.08984375 C-81.88795469 211.01332005 -67.47844122 211.22345473 -53.0401001 211.26708984 C-51.03027897 211.27384271 -49.02046596 211.28400945 -47.01068115 211.29785156 C-15.67851612 212.10070676 -15.67851612 212.10070676 12.69921875 201.08984375 C16.67285032 196.56812507 16.79492207 190.87621365 16.69921875 185.08984375 C14.16524404 162.13501403 -2.20591302 140.50415558 -16.30078125 123.08984375 C-17.01234375 122.14882813 -17.72390625 121.2078125 -18.45703125 120.23828125 C-19.06546875 119.52929688 -19.67390625 118.8203125 -20.30078125 118.08984375 C-20.96078125 118.08984375 -21.62078125 118.08984375 -22.30078125 118.08984375 C-24.00252521 123.19797963 -24.53068759 127.59656593 -24.27734375 132.9921875 C-24.23980484 134.07603477 -24.23980484 134.07603477 -24.20150757 135.18177795 C-24.12007261 137.46416637 -24.02319535 139.74558725 -23.92578125 142.02734375 C-23.8674631 143.58524837 -23.81016166 145.1431914 -23.75390625 146.70117188 C-23.61460981 150.49794095 -23.46147197 154.29392242 -23.30078125 158.08984375 C-29.29527367 156.38292026 -34.11577421 154.36616709 -38.98828125 150.46484375 C-39.54499512 150.0260791 -40.10170898 149.58731445 -40.67529297 149.13525391 C-48.69106755 142.58074961 -53.17316034 134.2038212 -55.30078125 124.08984375 C-55.39063091 122.52408631 -55.43140422 120.95505052 -55.43359375 119.38671875 C-55.43488281 118.48824219 -55.43617188 117.58976563 -55.4375 116.6640625 C-55.43363281 115.73207031 -55.42976562 114.80007813 -55.42578125 113.83984375 C-55.42964844 112.92332031 -55.43351563 112.00679687 -55.4375 111.0625 C-55.42975833 105.63558617 -55.02079998 100.46447178 -54.30078125 95.08984375 C-54.23953215 93.09067328 -54.21328185 91.08979601 -54.23828125 89.08984375 C-54.24730469 88.14109375 -54.25632812 87.19234375 -54.265625 86.21484375 C-54.27722656 85.51359375 -54.28882813 84.81234375 -54.30078125 84.08984375 C-54.99171875 83.85394531 -55.68265625 83.61804688 -56.39453125 83.375 C-59.86648597 81.83968669 -62.76584499 79.77063137 -65.80078125 77.52734375 C-67.052721 76.6162738 -68.30533982 75.70613634 -69.55859375 74.796875 C-70.18668945 74.34006348 -70.81478516 73.88325195 -71.46191406 73.41259766 C-74.16777736 71.46618669 -76.92219509 69.59291312 -79.67578125 67.71484375 C-148.22035388 20.33112587 -148.22035388 20.33112587 -159.30078125 -12.91015625 C-160.00841469 -20.29987122 -160.0418766 -26.26583098 -155.78515625 -32.51953125 C-154.01611371 -34.17684479 -152.66612767 -34.52604016 -150.30078125 -34.91015625 C-150.30078125 -35.57015625 -150.30078125 -36.23015625 -150.30078125 -36.91015625 C-109.23720731 -61.06519974 -35.529607 -19.7863503 0 0 Z " fill="#000000" transform="translate(402.30078125,225.91015625)"/>
</svg>
