<?xml version="1.0" encoding="UTF-8"?>
<svg version="1.1" xmlns="http://www.w3.org/2000/svg" width="512" height="512">
<path d="M0 0 C3 1 3 1 4.2890625 3.37109375 C4.72992188 4.38300781 5.17078125 5.39492187 5.625 6.4375 C12.96899244 21.70575096 25.56717771 30.21622851 41 36 C47.26606743 38.05134991 53.61307439 39.80238485 59.96484375 41.56640625 C72.81706463 45.25926889 83.92112716 49.21064634 91.203125 60.9375 C99.75318689 76.76149513 97.83056803 91.96202095 95 109 C99.10790881 107.22240281 103.21556383 105.44422079 107.32299805 103.66552734 C108.71648536 103.06218161 110.11003848 102.45898784 111.50366211 101.85595703 C119.01767312 98.60446895 126.526395 95.34367267 134 92 C133.01 89.03 132.02 86.06 131 83 C136.33825944 82.42766309 141.67680212 81.85807268 147.015625 81.29101562 C148.83146057 81.09775884 150.64721673 80.90375429 152.46289062 80.70898438 C155.07401291 80.42901722 157.68540982 80.15174813 160.296875 79.875 C161.10743347 79.78750488 161.91799194 79.70000977 162.75311279 79.60986328 C166.19700792 79.24720399 169.53263948 79 173 79 C171.5158627 82.48654476 169.53785948 84.64191072 166.8125 87.25 C163.27212865 90.70553817 159.98060941 94.25980209 156.765625 98.015625 C154.20744127 100.89075185 151.46265024 103.56171598 148.69921875 106.23828125 C146.80910864 108.09309306 146.80910864 108.09309306 145 111 C142 110 142 110 140.83203125 107.71484375 C140.49558594 106.79832031 140.15914063 105.88179688 139.8125 104.9375 C139.46832031 104.01839844 139.12414062 103.09929687 138.76953125 102.15234375 C138.51558594 101.44207031 138.26164062 100.73179688 138 100 C129.69531438 102.51960341 121.93303244 106.07907991 114.0625 109.6875 C112.07609452 110.59710387 110.08911627 111.50531531 108.09996033 112.40888977 C106.31374704 113.22033767 104.5299737 114.03715019 102.74633789 114.85424805 C100 116 100 116 98 116 C101.15313637 122.35131754 104.98992467 126.0157543 110.9375 129.625 C122.75969009 136.85972634 130.68716279 146.59864833 134.2109375 160.265625 C136.75772165 172.31872228 131.99121631 182.7406176 126.6875 193.375 C125.7016104 195.40093826 124.71593171 197.42697917 123.73046875 199.453125 C122.47614402 202.00723033 121.21900199 204.55975194 119.95166016 207.10742188 C111.27154041 224.58998284 109.63799234 240.96228341 115.8671875 259.59375 C116.53898013 261.41078911 117.26239255 263.20866761 118 265 C113.99684332 264.39687164 111.00213773 263.12611356 107.45703125 261.19140625 C106.39274902 260.61447021 105.3284668 260.03753418 104.23193359 259.44311523 C103.10352051 258.82251221 101.97510742 258.20190918 100.8125 257.5625 C99.63129819 256.91884536 98.44981764 256.27570198 97.26806641 255.63305664 C90.07882922 251.71684932 82.91458247 247.75492277 75.76879883 243.76000977 C69.54286114 240.28357276 63.27422407 236.8883659 57 233.5 C49.02063381 229.19027199 41.06301757 224.84604283 33.14648438 220.421875 C27.45298497 217.24070949 21.72942138 214.11595476 16 211 C16.33632484 215.28426698 16.69136453 219.5664988 17.06201172 223.84790039 C17.18502335 225.29704134 17.30337462 226.74658731 17.41650391 228.1965332 C18.39562431 240.67815211 19.49309549 253.57862797 27 264 C39.22108997 283.79240496 36.3161999 312.87087174 36 335 C37.24245483 335.15299561 37.24245483 335.15299561 38.51000977 335.30908203 C80.04763531 340.56615067 80.04763531 340.56615067 93 351 C98.59677982 362.19355963 93.33463467 383.37206794 92.28182983 395.67437744 C91.25219461 407.78778425 90.69411202 419.69355936 91.19921875 431.85400391 C91.37242066 437.95051424 91.1884292 441.40840649 87 446 C82 449 82 449 79 449 C76.92903771 445.11906485 74.89857919 441.21832192 72.875 437.3125 C71.99134766 435.65831055 71.99134766 435.65831055 71.08984375 433.97070312 C70.54199219 432.90400391 69.99414062 431.83730469 69.4296875 430.73828125 C68.91647949 429.75899658 68.40327148 428.77971191 67.87451172 427.77075195 C67 425 67 425 67.75830078 422.25 C69.3269392 419.40757536 71.27370905 417.40834377 73.5625 415.13671875 C78.02175422 408.50842512 77.34935234 399.96623672 77.3125 392.3125 C77.30730347 390.57963745 77.30730347 390.57963745 77.30200195 388.81176758 C77.20159709 380.94967858 76.90742637 373.40616018 74 366 C73.67644531 365.06800781 73.35289062 364.13601563 73.01953125 363.17578125 C71.2570974 360.85814115 71.2570974 360.85814115 69.04223633 360.58496094 C61.77962946 360.34064181 54.86822199 362.17913521 47.875 363.9375 C34.16446728 367.31420834 21.8868364 369.62819523 8 366 C8.2582959 366.58193115 8.5165918 367.1638623 8.78271484 367.76342773 C11.6076617 374.42241812 13.28453667 380.96786598 14.625 388.0625 C14.83664795 389.15578613 15.0482959 390.24907227 15.26635742 391.37548828 C18.69694373 409.52706307 20.29092141 425.54519371 15.71875 443.63671875 C15.38133948 445.01078114 15.04505565 446.38512063 14.70983887 447.75971985 C13.83324977 451.34136293 12.94161428 454.91908579 12.04656982 458.49615479 C11.13243509 462.16116642 10.23288771 465.82975339 9.33203125 469.49804688 C7.56877985 476.66890035 5.78958463 483.83566743 4 491 C4.93839722 491.43699219 4.93839722 491.43699219 5.89575195 491.8828125 C8.4256489 493.22598554 9.52955955 494.6814406 11.1875 497 C11.69667969 497.70125 12.20585937 498.4025 12.73046875 499.125 C15.25409879 502.85220745 15.1603716 505.50959512 15 510 C14.67 510.66 14.34 511.32 14 512 C3.44 512 -7.12 512 -18 512 C-18 501.60655791 -17.67432226 493.00000686 -15.625 483.0625 C-15.37113525 481.76852295 -15.11727051 480.4745459 -14.85571289 479.14135742 C-13.26144859 471.19202334 -11.35053701 463.35085967 -9.26953125 455.515625 C-8.91946014 454.18240456 -8.91946014 454.18240456 -8.56231689 452.82225037 C-7.409357 448.4380629 -6.22733259 444.06611175 -4.98876953 439.70532227 C-2.3995913 430.25937733 -1.21047717 423.39224309 -5 414 C-5.32331299 413.09660889 -5.64662598 412.19321777 -5.97973633 411.26245117 C-6.98217377 408.53833538 -8.06531866 405.86434734 -9.1875 403.1875 C-9.58042236 402.24116699 -9.97334473 401.29483398 -10.37817383 400.31982422 C-19.220936 379.12588924 -19.220936 379.12588924 -35 363 C-46.44037443 359.54175803 -59.98708942 360.78249118 -71.81005859 360.75976562 C-74.8619291 360.75004165 -77.91312976 360.71891542 -80.96484375 360.6875 C-92.04939175 360.62849292 -102.24509899 361.1969293 -113 364 C-113.74878418 364.0937793 -114.49756836 364.18755859 -115.26904297 364.28417969 C-117.23793855 364.87610788 -117.23793855 364.87610788 -118.08691406 367.19091797 C-118.38823242 368.11791504 -118.68955078 369.04491211 -119 370 C-119.86304064 371.98472014 -120.73345026 373.96624478 -121.609375 375.9453125 C-127.50730602 389.38931964 -133.26656088 402.75901146 -137 417 C-137.19432617 417.72525879 -137.38865234 418.45051758 -137.58886719 419.19775391 C-137.77352539 419.94331543 -137.95818359 420.68887695 -138.1484375 421.45703125 C-138.31263184 422.11292236 -138.47682617 422.76881348 -138.64599609 423.44458008 C-139.5793326 430.18198226 -138.93403113 436.68101604 -137.72265625 443.33203125 C-137.59185165 444.08989426 -137.46104706 444.84775726 -137.32627869 445.62858582 C-136.91211348 448.02452699 -136.48826091 450.41859444 -136.0625 452.8125 C-135.50533673 455.96376406 -134.95472769 459.11606728 -134.41015625 462.26953125 C-134.2775943 463.02469025 -134.14503235 463.77984924 -134.00845337 464.55789185 C-133.08760223 469.9745368 -132.61315182 475.31917257 -132.50170898 480.8190918 C-132.23336044 483.16129298 -132.23336044 483.16129298 -130.12524414 484.17504883 C-129.42391357 484.44728271 -128.72258301 484.7195166 -128 485 C-123.85516633 488.53827264 -121.64535789 491.78970001 -120 497 C-120.26797351 499.00980131 -120.59215576 501.01385444 -121 503 C-125.25414623 503.02465622 -129.50825498 503.04283899 -133.76245117 503.05493164 C-135.21070073 503.05997101 -136.65894517 503.06680253 -138.10717773 503.07543945 C-140.18474588 503.08752247 -142.26224697 503.09323211 -144.33984375 503.09765625 C-145.59144287 503.10289307 -146.84304199 503.10812988 -148.13256836 503.11352539 C-151 503 -151 503 -152 502 C-152.33874588 499.03225003 -152.62032136 496.07735472 -152.8671875 493.1015625 C-153.03224149 491.24085784 -153.19761689 489.38018167 -153.36328125 487.51953125 C-153.61945865 484.58642202 -153.87263135 481.65313539 -154.11962891 478.71923828 C-155.29806142 461.6774773 -155.29806142 461.6774773 -160.6875 445.625 C-166.29589876 430.13513677 -157.5815059 412.21164794 -151.8125 397.8125 C-150.99130088 395.74416059 -150.17249333 393.67491079 -149.35612488 391.60466003 C-148.625759 389.75525689 -147.88889034 387.90842563 -147.15161133 386.06176758 C-144.05236141 377.82184958 -144.76687003 370.72704335 -146.9375 362.375 C-147.30259644 360.92493499 -147.66591233 359.47442037 -148.02734375 358.0234375 C-148.19733887 357.34249023 -148.36733398 356.66154297 -148.54248047 355.95996094 C-149.15742 353.32563085 -149.59926301 350.67439213 -150 348 C-162.92504076 349.1046973 -162.92504076 349.1046973 -174.6171875 354.1640625 C-176.63229578 356.83948874 -177.22699502 359.72592594 -177.9375 362.9375 C-178.1037085 363.67202393 -178.26991699 364.40654785 -178.44116211 365.16333008 C-181.55444566 379.62715702 -183.40638529 394.40242677 -184.8125 409.12109375 C-184.87690781 409.79244858 -184.94131561 410.46380341 -185.00767517 411.15550232 C-185.31476274 414.39428778 -185.60463636 417.63351601 -185.87329102 420.87573242 C-187.59004423 440.13946901 -187.59004423 440.13946901 -194 446 C-199.25448238 448.74666124 -202.59711603 447.6828655 -208 446 C-208.99 445.67 -209.98 445.34 -211 445 C-211.67272347 441.58449704 -212.33711799 438.16742548 -213 434.75 C-213.28617188 433.29787109 -213.28617188 433.29787109 -213.578125 431.81640625 C-213.75859375 430.88183594 -213.9390625 429.94726562 -214.125 428.984375 C-214.37636719 427.69611816 -214.37636719 427.69611816 -214.6328125 426.38183594 C-215 424 -215 424 -215 420 C-214.113125 419.608125 -213.22625 419.21625 -212.3125 418.8125 C-208.10523784 416.51041316 -205.14525672 414.00419926 -202.75 409.8125 C-199.91441283 399.1790481 -200.45432833 387.26436994 -199.95043945 376.31494141 C-198.48907686 344.88772075 -198.48907686 344.88772075 -191.9765625 337.796875 C-190.81253906 336.78367187 -190.81253906 336.78367187 -189.625 335.75 C-188.7484375 334.986875 -187.871875 334.22375 -186.96875 333.4375 C-183.21904736 330.35879678 -179.38402147 327.40151437 -175.46728516 324.53808594 C-169.71592731 320.25957197 -166.34106564 315.78909034 -164 309 C-163.40157708 303.51445652 -164.43776899 298.85031385 -167 294 C-167.9987842 292.99878567 -168.99859846 291.99859649 -170 291 C-170 290.34 -170 289.68 -170 289 C-170.639375 288.690625 -171.27875 288.38125 -171.9375 288.0625 C-174 287 -174 287 -175 286 C-177.42054806 285.65424551 -177.42054806 285.65424551 -180 286 C-185.78561432 290.70177289 -188.7971722 299.28761495 -191.92184448 305.82949829 C-207.82114726 338.99712724 -207.82114726 338.99712724 -221.90625 345.28125 C-230.21509378 348.13353966 -238.0711862 347.04687045 -246.06640625 343.7265625 C-257.84188922 337.91675743 -266.6770714 328.99564687 -275 319 C-274.07102905 319.0314209 -274.07102905 319.0314209 -273.12329102 319.06347656 C-270.26986458 319.1475182 -267.41669964 319.19893445 -264.5625 319.25 C-263.10166992 319.30027344 -263.10166992 319.30027344 -261.61132812 319.3515625 C-254.26127927 319.44989091 -247.95466553 318.36800814 -242.21435547 313.47924805 C-232.83809267 304.00762812 -231.20921467 289.10436597 -229.0703125 276.5703125 C-228.90345947 275.61044434 -228.73660645 274.65057617 -228.56469727 273.66162109 C-228.23898226 271.77320244 -227.92371821 269.88293984 -227.62084961 267.99072266 C-225.9744653 258.36369327 -223.06124458 248.14101829 -215.25 241.75 C-205.97541117 236.75599063 -193.25424528 236.29311876 -183.078125 238.6875 C-176.71449504 241.32072619 -171.07739533 245.56028831 -167.9375 251.75 C-166.32467453 255.15042054 -166.32467453 255.15042054 -163.3671875 256.21875 C-159.52063713 257.11122108 -156.08181417 257.06794006 -152.1875 256.75 C-151.07870483 256.67265625 -151.07870483 256.67265625 -149.94750977 256.59375 C-144.04735844 256.15415782 -138.18397421 255.46604795 -132.31396484 254.73583984 C-112.46922922 252.30727229 -92.62997616 253.02470844 -72.69799805 253.64819336 C-70.04748418 253.73016801 -67.39684491 253.80506299 -64.74609375 253.87890625 C-63.53825478 253.91945885 -63.53825478 253.91945885 -62.30601501 253.96083069 C-58.37390422 254.06545733 -54.84284222 253.99853381 -51 253 C-52.09826989 240.34248677 -54.29719018 228.31626018 -57.375 216 C-58.15705257 212.81333062 -58.93369704 209.62534606 -59.7109375 206.4375 C-59.90109436 205.6604068 -60.09125122 204.8833136 -60.28717041 204.08267212 C-61.65652229 198.46900017 -62.98228837 192.84668725 -64.2578125 187.2109375 C-64.42654877 186.4792334 -64.59528503 185.7475293 -64.76913452 184.99365234 C-67.34360259 173.47320467 -67.34360259 173.47320467 -66 168 C-63.71438128 164.7495975 -62.30562487 164.07027383 -58.3984375 163.171875 C-57.05924776 163.01370298 -55.71783301 162.8734789 -54.375 162.75 C-53.694375 162.67265625 -53.01375 162.5953125 -52.3125 162.515625 C-49.87125005 162.24544714 -47.45787602 162 -45 162 C-45.82027532 154.45892372 -45.82027532 154.45892372 -49.375 147.9375 C-50.24125 147.298125 -51.1075 146.65875 -52 146 C-52.58652344 145.56042969 -53.17304688 145.12085938 -53.77734375 144.66796875 C-56.16835616 143.68511275 -56.16835616 143.68511275 -58.98046875 145.3359375 C-60.03878906 146.00882813 -61.09710938 146.68171875 -62.1875 147.375 C-67.97490347 151 -67.97490347 151 -69 151 C-69.33 145.72 -69.66 140.44 -70 135 C-73.3 135 -76.6 135 -80 135 C-78.74243333 131.51750769 -77.2268108 128.93534151 -75 126 C-75 125.34 -75 124.68 -75 124 C-78.96 123.01 -82.92 122.02 -87 121 C-87 120.34 -87 119.68 -87 119 C-85.38542921 117.56418526 -83.70780925 116.19855217 -82 114.875 C-81.071875 114.15054688 -80.14375 113.42609375 -79.1875 112.6796875 C-78.465625 112.12539062 -77.74375 111.57109375 -77 111 C-79.64 109.68 -82.28 108.36 -85 107 C-82 104 -79 101 -76 98 C-76.5775 97.59007813 -77.155 97.18015625 -77.75 96.7578125 C-78.4925 96.21898438 -79.235 95.68015625 -80 95.125 C-80.7425 94.59132813 -81.485 94.05765625 -82.25 93.5078125 C-82.8275 93.01023437 -83.405 92.51265625 -84 92 C-84 91.34 -84 90.68 -84 90 C-82.4188708 89.49307308 -80.83498617 88.99473557 -79.25 88.5 C-78.36828125 88.2215625 -77.4865625 87.943125 -76.578125 87.65625 C-74 87 -74 87 -70 87 C-70.5053125 86.44570312 -71.010625 85.89140625 -71.53125 85.3203125 C-72.1809375 84.59585938 -72.830625 83.87140625 -73.5 83.125 C-74.1496875 82.40570313 -74.799375 81.68640625 -75.46875 80.9453125 C-77 79 -77 79 -77 77 C-72.05 77.33 -67.1 77.66 -62 78 C-62.495 76.453125 -62.99 74.90625 -63.5 73.3125 C-64.64568516 69.73223386 -65.16271068 66.76268444 -65 63 C-60.61105071 66.26720791 -56.24740335 69.54898478 -52 73 C-51.80664062 72.38511719 -51.61328125 71.77023438 -51.4140625 71.13671875 C-51.15367187 70.32847656 -50.89328125 69.52023438 -50.625 68.6875 C-50.36976563 67.88699219 -50.11453125 67.08648437 -49.8515625 66.26171875 C-49 64 -49 64 -47 61 C-46.34 61 -45.68 61 -45 61 C-43.7109375 62.75 -43.7109375 62.75 -42.375 65 C-41.92898438 65.7425 -41.48296875 66.485 -41.0234375 67.25 C-40.51683594 68.11625 -40.51683594 68.11625 -40 69 C-36.39937989 66.22237877 -33.16952847 63.26008643 -30 60 C-28.39274365 63.21451269 -28.94251815 66.43612536 -29 70 C-23.555 69.01 -23.555 69.01 -18 68 C-17.740979 66.62134766 -17.48195801 65.24269531 -17.21508789 63.82226562 C-15.9328799 57.42210789 -14.25721316 51.14403045 -12.55859375 44.84375 C-12.06698509 43.00762146 -12.06698509 43.00762146 -11.56544495 41.13439941 C-10.87693633 38.56573935 -10.18722866 35.9974409 -9.49536133 33.4296875 C-8.6084602 30.13765164 -7.72637678 26.84434773 -6.84577847 23.55062103 C-6.00229893 20.39772671 -5.15535143 17.24576524 -4.30859375 14.09375 C-3.99192245 12.91051147 -3.67525116 11.72727295 -3.34898376 10.50817871 C-3.0552034 9.41944458 -2.76142303 8.33071045 -2.45874023 7.20898438 C-2.07140968 5.76863831 -2.07140968 5.76863831 -1.67625427 4.29919434 C-1 2 -1 2 0 0 Z M2 31 C-1.39934027 41.73354595 -4.71621879 52.48849557 -7.81445312 63.31323242 C-8.27784117 64.91809308 -8.74942228 66.5206072 -9.22851562 68.12084961 C-9.93226313 70.47513162 -10.60937394 72.8356728 -11.28125 75.19921875 C-11.49978638 75.91067551 -11.71832275 76.62213226 -11.94348145 77.35514832 C-12.89237991 80.79827567 -13.1982198 82.55989057 -11.70898438 85.86645508 C-10.61242465 87.23543156 -9.50214627 88.59359483 -8.375 89.9375 C-6.59113139 92.61330291 -6.27082378 94.81782058 -6 98 C-6.33 98.99 -6.66 99.98 -7 101 C-5.79150391 101.99580078 -5.79150391 101.99580078 -4.55859375 103.01171875 C-3.51747546 103.90276594 -2.47715159 104.79474194 -1.4375 105.6875 C-0.63795898 106.34008789 -0.63795898 106.34008789 0.17773438 107.00585938 C1.69140625 108.32421875 1.69140625 108.32421875 4 111 C3.96484375 113.76953125 3.96484375 113.76953125 3 116 C2.01 116.495 2.01 116.495 1 117 C1.08378906 117.59167969 1.16757812 118.18335937 1.25390625 118.79296875 C1.82292692 123.208281 1.92001224 126.62994185 1 131 C1.27769908 133.3406065 1.60539977 135.67624308 2 138 C2 138.66 2 139.32 2 140 C1.24074219 140.20496094 0.48148437 140.40992188 -0.30078125 140.62109375 C-1.29464844 140.89050781 -2.28851563 141.15992188 -3.3125 141.4375 C-4.29863281 141.70433594 -5.28476562 141.97117187 -6.30078125 142.24609375 C-8.21517526 142.78079425 -10.11433615 143.37144538 -12 144 C-12.33 146.31 -12.66 148.62 -13 151 C-8.87905817 152.37364728 -6.26321566 150.84197565 -2.40625 149.30859375 C-1.63936859 149.01206406 -0.87248718 148.71553436 -0.08236694 148.41001892 C2.44876968 147.42835963 4.97433404 146.43314115 7.5 145.4375 C9.25479081 144.75341514 11.00983943 144.06999125 12.76513672 143.38720703 C26.00469542 138.22514115 39.20855051 132.96989051 52.38867188 127.65795898 C60.56488771 124.36308506 68.76066364 121.13485539 77 118 C76.92346191 116.97213379 76.84692383 115.94426758 76.76806641 114.88525391 C76.32304084 108.85025335 75.94642826 102.93020542 76.125 96.875 C76.21045158 86.29324586 73.57308094 74.41549058 66.625 66.1875 C61.19955669 61.66629724 56.10525523 59.10335043 49.453125 57.01171875 C47.78632495 56.46459889 46.11966259 55.91705943 44.453125 55.36914062 C41.85742462 54.52729846 39.26023868 53.69076136 36.66015625 52.86254883 C19.07883401 47.23458561 19.07883401 47.23458561 11.80371094 41.39379883 C9.94337677 39.79787503 9.94337677 39.79787503 7 39 C6 37.1875 6 37.1875 5 35 C4.01620741 33.65466364 3.01805531 32.31959887 2 31 Z M57 147 C55.46923794 147.83552998 53.93797625 148.67014517 52.40625 149.50390625 C49.32885172 151.18693898 46.26856154 152.89642168 43.21875 154.62890625 C40.6408714 156.09260714 38.05130233 157.50164431 35.40625 158.83984375 C27.46398027 163.01739899 23.10038177 167.26190779 20.39208984 175.95019531 C18.05240226 184.22967655 16.72327505 192.43146127 16 201 C29.52357824 208.75011155 43.14621509 216.27414843 56.90283203 223.59936523 C64.40833692 227.5992082 71.86363399 231.67541926 79.28198242 235.83422852 C84.44325351 238.71801194 89.66328268 241.45232088 95 244 C94.835 242.865625 94.67 241.73125 94.5 240.5625 C92.73683126 225.75706842 97.01294072 214.124935 103.5 200.875 C111.71068605 185.66815848 111.71068605 185.66815848 113 169 C109.31092645 159.41530424 104.28358958 152.23370198 97 145 C96.2471875 144.21109375 95.494375 143.4221875 94.71875 142.609375 C91.9458735 139.71310991 91.9458735 139.71310991 89 137 C76.57432988 137 67.57094333 141.10559193 57 147 Z " fill="#000000" transform="translate(307,0)"/>
</svg>
