<?xml version="1.0" encoding="UTF-8"?>
<svg version="1.1" xmlns="http://www.w3.org/2000/svg" width="512" height="512">
<path d="M0 0 C-3.09121811 3.70946174 -6.19483531 7.22826546 -9.6875 10.5625 C-21.82175644 22.58097155 -32.95345488 37.9944394 -39 54 C-39.391875 55.03125 -39.78375 56.0625 -40.1875 57.125 C-44.37158872 69.67726616 -45.34243654 84.6297154 -40 97 C-35.72155103 97 -32.69586523 95.21133231 -29.25 92.75 C-27.34080926 90.07713296 -26.77442358 87.15726536 -26 84 C-21.20455092 85.6015689 -17.45790558 88.29422846 -13.375 91.1875 C-7.75798119 95.11979913 -2.09807036 98.904743 3.765625 102.46484375 C7.30781363 104.89855028 9.62674196 106.88022588 11 111 C11.80437188 118.92504093 10.51204682 124.92103063 7 132 C6.38125 133.29357422 6.38125 133.29357422 5.75 134.61328125 C0.58761678 144.74739149 -6.72763301 153.32760513 -14 162 C-3.41739683 160.36130457 6.58116697 157.01335875 16.45498657 152.93222046 C17.76956319 152.39696399 19.09218644 151.88103405 20.42221069 151.38540649 C24.72313533 149.76662692 28.50315225 148.06852164 32 145 C33.6935531 140.33501855 33.84025528 135.92406727 34 131 C35.61323338 123.55781194 39.06008871 115.93726642 45 111 C48.7262333 108.76724698 51.67922792 108.83381646 56 109 C56.33 109.66 56.66 110.32 57 111 C55.8203125 113.71484375 55.8203125 113.71484375 54.125 116.9375 C51.38715166 122.17761438 49.83890472 125.93320091 49.75 131.875 C49.71132813 133.41800781 49.71132813 133.41800781 49.671875 134.9921875 C50.04845974 138.4442143 50.91783031 140.2430531 53 143 C56.84370573 145.21752254 59.30199036 146.01163349 63.75 145.9375 C67.02599486 145.27614433 67.02599486 145.27614433 68.875 143.125 C71.09019218 138.9407481 71.19181381 135.18259078 71.1875 130.5625 C71.1884668 129.50192383 71.1884668 129.50192383 71.18945312 128.41992188 C71.12726964 122.15069614 70.30130776 116.13473656 69 110 C73.22111298 110.16553384 75.41153982 110.4815946 78.625 113.3125 C82.96140582 119.36925042 85.84792383 126.30232584 86.5 133.72265625 C87.20262984 141.16173502 87.20262984 141.16173502 90 148 C94.98390588 152.00980225 101.40040852 153.48624618 107.45263672 155.20703125 C111.12736108 156.35093625 114.4543535 158.00755369 117.875 159.75 C124.76686073 163.05597491 131.60080695 165.16445288 139 167 C138.29875 166.21238281 137.5975 165.42476562 136.875 164.61328125 C126.00414021 152.21196436 114.37618936 137.37259195 113.671875 120.29296875 C114.33013977 115.69295188 115.38212192 112.37389621 118.94433594 109.34887695 C121.4159089 107.66200001 123.93211392 106.09869623 126.5 104.5625 C128.31409154 103.43745809 130.12660383 102.30986558 131.9375 101.1796875 C132.81019531 100.63924805 133.68289063 100.09880859 134.58203125 99.54199219 C138.53698677 97.01982952 142.22137012 94.19421346 145.90625 91.29296875 C148 90 148 90 152 90 C152.185625 91.2375 152.37125 92.475 152.5625 93.75 C153.185117 96.28078131 153.59286245 97.63593494 155.55078125 99.38671875 C158.5846825 101.13429784 161.6085611 102.23057664 165 103 C171.24958662 84.95874052 169.0142174 68.87934072 160.87890625 51.71484375 C153.44685704 36.71741795 142.48088934 24.21814538 131.00390625 12.21484375 C128.82147107 9.91953544 126.81315362 7.60600216 125 5 C139.77261642 4.05706704 153.69110642 14.01181018 164.53125 23.12890625 C167.0644303 25.37671284 169.54117504 27.67120905 172 30 C172.763125 30.71027344 173.52625 31.42054687 174.3125 32.15234375 C191.67678268 48.82326098 204.32486488 71.89793974 205.203125 96.3125 C205.57522748 118.45730788 199.64484735 137.3146487 188 156 C187.35417969 157.09634766 187.35417969 157.09634766 186.6953125 158.21484375 C181.97769977 165.64915071 174.14007357 169.42945045 166 172 C165.34 172 164.68 172 164 172 C163.773125 172.70125 163.54625 173.4025 163.3125 174.125 C160.57825393 180.11430091 157.0104885 183.35890284 151.35546875 186.43359375 C144.95435915 187.97283238 138.27738509 185.29697667 132.30078125 183.12890625 C131.50270554 182.84651596 130.70462982 182.56412567 129.88237 182.2731781 C127.35630917 181.37719293 124.83446407 180.46994357 122.3125 179.5625 C120.60898084 178.95695914 118.90520679 178.35213485 117.20117188 177.74804688 C104.08651922 173.08537886 104.08651922 173.08537886 99 171 C99.23976563 172.04607422 99.23976563 172.04607422 99.484375 173.11328125 C101.18876564 182.6552864 100.72073362 192.76585046 95.67578125 201.21875 C92.59855197 205.54787046 89.10908485 208.67032316 85 212 C86.093125 212.54785156 87.18625 213.09570312 88.3125 213.66015625 C97.83457967 218.51165846 107.02111313 223.7375424 116.0625 229.4375 C117.07159424 230.07308838 118.08068848 230.70867676 119.12036133 231.36352539 C123.00179069 233.81668388 126.87763715 236.27796657 130.73925781 238.76220703 C133.21464898 240.35339773 135.70009425 241.92768644 138.1875 243.5 C138.91138916 243.97493896 139.63527832 244.44987793 140.38110352 244.93920898 C144.29332965 247.41955732 144.29332965 247.41955732 148.8046875 247.98046875 C156.05565623 244.74204677 158.97723263 235.13705587 161.74609375 228.3125 C164.92802158 219.9066595 165.52059254 211.98258182 166 203 C171.7734375 203.7265625 171.7734375 203.7265625 173.8125 206.1875 C178.8061264 218.0145099 175.35063506 234.4483138 171 246 C166.1800332 255.51419534 159.73138085 265.93157248 150 271 C144.60726643 272.65930264 140.86195165 271.76594663 135.84375 269.58984375 C130.1044759 266.38121111 125.06871635 262.16302095 120 258 C120.58221256 261.68479262 121.27969268 265.33983375 122 269 C122.22171875 270.25039063 122.4434375 271.50078125 122.671875 272.7890625 C124.39465724 280.89914117 126.24437416 285.64122727 133.20703125 290.3515625 C134.12871094 290.89554687 135.05039062 291.43953125 136 292 C136.95261719 292.58523438 137.90523437 293.17046875 138.88671875 293.7734375 C143.5344143 296.47455388 147.53649214 298.72682461 153 299 C158.72841068 296.87752114 163.102638 292.84540604 167.70117188 288.93945312 C171.61996375 285.73237982 174.90244367 283.94174163 180 283 C186.41133198 284.60283299 190.43328878 288.48872588 194 294 C194.86718803 296.54797382 195 298.26435139 195 301 C194 302 194 302 190.875 302.125 C187.17234004 302.00555936 183.6586783 301.55274996 180 301 C179.02160156 302.39412109 179.02160156 302.39412109 178.0234375 303.81640625 C164.96809132 322.32689708 164.96809132 322.32689708 160 324 C154.653647 323.59604605 150.45426559 322.06908227 145.75390625 319.62109375 C145.09792953 319.28956802 144.44195282 318.9580423 143.76609802 318.61647034 C141.69330044 317.56619331 139.6279414 316.50215803 137.5625 315.4375 C136.14955886 314.71847607 134.73615135 314.00036783 133.32226562 313.28320312 C129.87602884 311.53267427 126.4363878 309.7697794 123 308 C126.53676243 333.4899516 126.53676243 333.4899516 138.06469727 354.515625 C141.79088035 356.39994615 145.47142189 357.31272155 149.51953125 358.26953125 C151.19871717 358.68755111 152.87774895 359.10619054 154.55664062 359.52539062 C157.18126688 360.17120003 159.80696819 360.81117741 162.43579102 361.43969727 C181.23813265 365.96222685 181.23813265 365.96222685 187 372 C187.75152344 372.74765625 188.50304687 373.4953125 189.27734375 374.265625 C189.82519531 374.92046875 190.37304688 375.5753125 190.9375 376.25 C191.50339844 376.91515625 192.06929688 377.5803125 192.65234375 378.265625 C195.21310553 381.56121408 195.08935344 383.88974161 195 388 C192 389 192 389 189.8359375 388.0390625 C189.02382813 387.57242187 188.21171875 387.10578125 187.375 386.625 C181.37564497 383.48996586 176.32201959 382.0164294 169.71484375 383.97265625 C157.76986934 387.27605086 146.82794188 385.06127092 136.09375 379.4921875 C127.18103086 374.34101918 122.44625132 367.57292034 119 358 C119 357.01 119 356.02 119 355 C118.34 355 117.68 355 117 355 C116.77413208 355.8674585 116.77413208 355.8674585 116.54370117 356.75244141 C114.52559097 364.00732923 111.59604568 370.61147034 108.3125 377.375 C107.51175049 379.05275513 107.51175049 379.05275513 106.69482422 380.7644043 C104.04450634 386.21556279 101.42508589 391.10098151 97.625 395.8125 C92.04286476 403.54692243 91.27341447 413.57985014 89.48828125 422.73828125 C83.75964325 451.74070539 72.26571398 488.96521426 47 507 C38.0734732 512.81792801 28.26944856 513.56961762 17.97802734 511.61621094 C-2.18689071 506.89414017 -22.91760136 495.41300271 -34.08984375 477.68359375 C-38.63105548 469.60335381 -41.12662103 461.32035938 -43.4375 452.375 C-46.13563793 442.06655297 -49.25024853 434.29598383 -56 426 C-56.4345752 425.44860352 -56.86915039 424.89720703 -57.31689453 424.32910156 C-64.46656255 415.34312449 -72.58556406 407.24217531 -80.6875 399.125 C-81.18293304 398.62838867 -81.67836609 398.13177734 -82.18881226 397.62011719 C-87.13474611 392.20393157 -87.13474611 392.20393157 -93 388 C-92.73749855 384.73748202 -91.8745094 383.88362218 -89.41796875 381.60546875 C-88.34944043 380.78851463 -87.27223865 379.98280425 -86.1875 379.1875 C-85.65318359 378.76791016 -85.11886719 378.34832031 -84.56835938 377.91601562 C-80.57136873 374.93179259 -80.57136873 374.93179259 -78.01416016 375.23706055 C-75.85473435 376.05502487 -74.53061104 376.96596641 -72.79296875 378.4765625 C-72.20966797 378.97921631 -71.62636719 379.48187012 -71.02539062 379.99975586 C-70.11563477 380.80425171 -70.11563477 380.80425171 -69.1875 381.625 C-68.56166016 382.16970947 -67.93582031 382.71441895 -67.29101562 383.27563477 C-63.53072681 386.57274932 -59.90495128 389.95635067 -56.4375 393.5625 C-54.80742138 395.24188446 -54.80742138 395.24188446 -52 397.4375 C-48.23580157 400.65275282 -45.18677373 404.22470617 -42 408 C-41.18917969 408.91136719 -40.37835938 409.82273437 -39.54296875 410.76171875 C-32.57600846 418.75231038 -27.29675965 426.84748003 -24.5 437.1875 C-20.06754246 453.15963147 -4.42270749 465.744523 9.36328125 473.6171875 C14.49536536 476.3086805 19.51334505 477.02318659 25.08984375 475.38671875 C31.44065539 472.61966646 35.27043968 467.99285214 38 461.69140625 C43.08359587 447.19826995 42.19447991 429.90920955 39.6875 414.9375 C39.56987305 414.23141602 39.45224609 413.52533203 39.33105469 412.79785156 C38.23109933 406.97737166 36.59257779 401.16734163 32.3125 396.875 C21.04252636 384.27261569 13.78212921 366.72900883 8 351 C6.01639814 353.83476415 6.01639814 353.83476415 4.80859375 356.41796875 C-1.18557047 368.52583892 -9.56985517 374.33794547 -22.125 378.74609375 C-28.97771542 380.74940773 -35.82751683 380.8951597 -42.5625 378.5625 C-49.78064379 376.10624561 -57.44702914 376.25410227 -65 376 C-66.1640625 370.3203125 -66.1640625 370.3203125 -64.6875 367.4375 C-55.33390395 358.95400591 -41.87690088 357.17553157 -29.98779297 354.29956055 C-27.43935751 353.67873903 -24.89552103 353.04122085 -22.3515625 352.40234375 C-21.57237457 352.21993637 -20.79318665 352.03752899 -19.99038696 351.84959412 C-15.58287636 350.73733908 -12.82268977 349.61905992 -10 346 C-3.08991421 333.21846094 -0.76972765 317.12369205 2 303 C-0.04974815 303.96432212 -2.09891042 304.92986407 -4.14746094 305.89672852 C-5.88963077 306.71894769 -7.63247592 307.53973743 -9.37597656 308.35913086 C-13.1813564 310.15525031 -16.97379536 311.95358286 -20.6875 313.93359375 C-30.68427873 319.25075795 -30.68427873 319.25075795 -36 318 C-40.95217889 314.76407353 -43.91334559 310.82203316 -46.76635742 305.73046875 C-50.1816606 299.28504845 -50.1816606 299.28504845 -55.96240234 295.36669922 C-60.46125238 294.97076663 -64.65026447 295.82598231 -69 297 C-69.7904896 294.69526085 -70.12134332 293.39633563 -69.3984375 291.03515625 C-66.55252752 285.54971908 -63.19449144 280.00410017 -57 278 C-53.09044851 277.20213235 -50.8078357 277.51288713 -47.3828125 279.578125 C-44.52784129 281.65015396 -41.75716201 283.79980052 -39 286 C-37.48316719 287.15112393 -35.96283145 288.29766141 -34.4375 289.4375 C-33.50744141 290.14712891 -33.50744141 290.14712891 -32.55859375 290.87109375 C-29.23776699 293.27640436 -26.68018134 293.20253474 -22.62890625 292.6953125 C-18.44111826 291.58769547 -15.22298219 289.38635295 -11.7109375 286.90234375 C-9 285 -9 285 -6.4765625 283.75390625 C-1.57359087 281.00921948 0.16152514 278.08211461 1.66796875 272.76953125 C4.12514296 262.99375706 4.12514296 262.99375706 5 253 C4.23816406 253.60328125 3.47632813 254.2065625 2.69140625 254.828125 C-4.28024444 260.22440893 -10.65759899 265.04599982 -19.5 266.625 C-27.8857729 265.12754055 -34.18352432 258.72227541 -39 252 C-46.56454464 239.64754358 -50.13252942 228.65314162 -50.3125 214.25 C-50.33014404 213.43370117 -50.34778809 212.61740234 -50.3659668 211.77636719 C-50.36034827 206.78507049 -49.81412158 203.29697253 -47 199 C-44 197 -44 197 -41 197 C-40.91363281 198.05316406 -40.82726562 199.10632813 -40.73828125 200.19140625 C-39.46476988 213.89765235 -36.79222803 227.90403915 -28 239 C-26.34796767 240.35142322 -24.68260385 241.68683594 -23 243 C-14.74715455 238.92997961 -6.53613001 234.79781632 1.578125 230.45703125 C2.29061401 230.07626434 3.00310303 229.69549744 3.73718262 229.30319214 C6.64256671 227.74859337 9.5466298 226.19161654 12.44726562 224.62817383 C21.14607861 219.94471897 29.76627219 215.55509592 39 212 C38.27079346 211.44783813 38.27079346 211.44783813 37.52685547 210.88452148 C30.89229486 205.76829453 27.10983926 199.07201896 25 191 C24.74481077 187.64103111 24.76570526 184.30425872 24.8125 180.9375 C24.8134668 179.61008789 24.8134668 179.61008789 24.81445312 178.25585938 C24.84283417 174.05231121 24.93560094 170.09580757 26 166 C25.49251221 166.27674561 24.98502441 166.55349121 24.4621582 166.83862305 C-10.34588479 185.73082304 -10.34588479 185.73082304 -27.75 182.25 C-33.66851579 179.97364777 -36.23682358 176.99086445 -38.8125 171.3125 C-41.94471708 165.6567281 -45.10012472 163.32239438 -50.6875 160.5 C-65.42899305 153.02711842 -74.87753155 141.34163888 -80.375 125.6875 C-81.65876147 121.45767053 -82.67230341 117.4239039 -83 113 C-83.0515625 112.32453125 -83.103125 111.6490625 -83.15625 110.953125 C-84.41177269 79.77431142 -65.57221682 51.59811376 -45.40234375 29.56640625 C-15.71949199 -2.14356709 -15.71949199 -2.14356709 0 0 Z " fill="#000000" transform="translate(212,0)"/>
<path d="M0 0 C0.06469482 0.57741943 0.12938965 1.15483887 0.19604492 1.74975586 C3.15280635 27.37586757 10.64577109 48.90869579 24 71 C17.5120359 75.73671415 10.81211534 80.14771239 4.0625 84.5 C3.22162842 85.05268555 2.38075684 85.60537109 1.5144043 86.17480469 C0.71687744 86.68430664 -0.08064941 87.19380859 -0.90234375 87.71875 C-1.61898193 88.18216797 -2.33562012 88.64558594 -3.07397461 89.12304688 C-5 90 -5 90 -8 89 C-8.76782227 87.07324219 -8.76782227 87.07324219 -9.31640625 84.546875 C-9.52233398 83.62447021 -9.72826172 82.70206543 -9.94042969 81.75170898 C-10.14571289 80.76114502 -10.35099609 79.77058105 -10.5625 78.75 C-10.77938477 77.73945557 -10.99626953 76.72891113 -11.21972656 75.68774414 C-11.83141695 72.79520973 -12.42079839 69.8991934 -13 67 C-13.24105469 65.80761719 -13.48210937 64.61523438 -13.73046875 63.38671875 C-17.02911542 44.66131847 -18.98435081 21.6214351 -8.0625 5.0625 C-3 0 -3 0 0 0 Z " fill="#000000" transform="translate(334,17)"/>
<path d="M0 0 C6.13861405 2.16045977 9.34253154 5.67981792 12.234375 11.47265625 C21.50306104 33.73765207 15.58459738 61.6391084 9 84 C5.56898679 82.70706652 2.48528985 81.21380787 -0.65234375 79.3203125 C-1.51150391 78.80339844 -2.37066406 78.28648438 -3.25585938 77.75390625 C-4.58327148 76.94759766 -4.58327148 76.94759766 -5.9375 76.125 C-6.81857422 75.59519531 -7.69964844 75.06539063 -8.60742188 74.51953125 C-13.14510605 71.77992567 -17.62088134 68.9867465 -22 66 C-20.5002455 61.89097873 -18.48847494 58.31498222 -16.25 54.5625 C-6.17589184 37.21697574 -1.72168638 19.7767396 0 0 Z " fill="#000000" transform="translate(215,17)"/>
<path d="M0 0 C8.80867472 3.85633225 16.40272742 9.19247932 24 15 C24.61472168 15.46809082 25.22944336 15.93618164 25.86279297 16.41845703 C27.67774552 17.81902812 29.46709504 19.24642926 31.25 20.6875 C32.07334839 21.32776123 32.07334839 21.32776123 32.91333008 21.98095703 C36.82517883 25.23473197 38.03848361 28.06156081 39 33 C39.46224726 38.26961872 38.99706409 41.59806212 36 46 C31.05306425 50.47735906 25.36757489 55.06013527 18.5 54.9375 C12.40738273 53.30554894 8.53086311 50.1701924 5 45 C2.94662475 40.82824856 2.60055559 36.8601096 2.40234375 32.28515625 C2.36315323 31.5517955 2.32396271 30.81843475 2.28358459 30.06285095 C2.16010654 27.72973466 2.04814915 25.3962569 1.9375 23.0625 C1.82146823 20.73245664 1.70292658 18.40258763 1.58070374 16.07286072 C1.50543405 14.62723269 1.4339593 13.18140027 1.3669281 11.73536682 C1.16623068 7.75793892 0.73453297 3.91408214 0 0 Z " fill="#000000" transform="translate(95,327)"/>
</svg>
