<?xml version="1.0" encoding="UTF-8"?>
<svg version="1.1" xmlns="http://www.w3.org/2000/svg" width="512" height="512">
<path d="M0 0 C1.35760202 2.71520405 0.7244961 4.04714952 0.07421875 6.99609375 C-0.25255859 8.53354248 -0.25255859 8.53354248 -0.5859375 10.10205078 C-0.82570312 11.20274902 -1.06546875 12.30344727 -1.3125 13.4375 C-2.89908373 20.73977259 -4.16439727 27.72302844 -4.4074707 35.19628906 C-4.55491712 39.06646568 -4.90902881 42.25123729 -6 46 C-9.0671061 48.74633426 -11.8518742 50.07764609 -15.66015625 51.609375 C-23.55107245 54.89494946 -27.74294352 61.40020155 -31 69 C-30.505 69.495 -30.505 69.495 -30 70 C-29.42894531 69.443125 -28.85789062 68.88625 -28.26953125 68.3125 C-12 53 -12 53 -5 53 C-4.4649366 56.226975 -3.94949467 59.45679125 -3.4375 62.6875 C-3.21030273 64.05551758 -3.21030273 64.05551758 -2.97851562 65.45117188 C-2.83994141 66.33740234 -2.70136719 67.22363281 -2.55859375 68.13671875 C-2.42767334 68.94842529 -2.29675293 69.76013184 -2.16186523 70.59643555 C-1.98039424 73.2911293 -2.2529986 75.40690072 -3 78 C-5.07421875 79.7734375 -5.07421875 79.7734375 -7.6875 81.375 C-15.69975583 86.685981 -19.58539559 91.65929345 -22 101 C-21.40574219 100.35933594 -20.81148437 99.71867187 -20.19921875 99.05859375 C-14.38250628 92.98858742 -8.48018883 87.92190456 -1 84 C-0.34 84 0.32 84 1 84 C2.31495542 86.60295276 3.62704986 89.20728033 4.9375 91.8125 C5.31068359 92.55048828 5.68386719 93.28847656 6.06835938 94.04882812 C6.42607422 94.76103516 6.78378906 95.47324219 7.15234375 96.20703125 C7.48226318 96.8616333 7.81218262 97.51623535 8.15209961 98.19067383 C9 100 9 100 10 103 C9.46890625 103.54527344 8.9378125 104.09054688 8.390625 104.65234375 C2.72400621 110.70156272 -2 116.43024863 -2 125 C-1.23816406 124.02160156 -1.23816406 124.02160156 -0.4609375 123.0234375 C7.80702799 112.52590828 7.80702799 112.52590828 12 109 C15.22179168 109.02074115 16.31850552 110.28838895 18.7265625 112.46875 C19.70042938 113.47172703 20.66638653 114.48243436 21.625 115.5 C24.95724215 119.20272083 24.95724215 119.20272083 29 122 C28.11843807 124.79161277 27.22763609 127.51779377 25.9765625 130.16796875 C22.74422898 137.19428239 22.56764896 143.33777887 23 151 C23.20753906 150.44054687 23.41507812 149.88109375 23.62890625 149.3046875 C26.58693437 141.60638837 30.24067676 134.32856834 34 127 C42 131 50 135 58 139 C57.76603516 140.21623047 57.76603516 140.21623047 57.52734375 141.45703125 C55.5359364 152.78563335 55.53566329 160.8535263 61 171 C61.01981934 170.44127197 61.03963867 169.88254395 61.06005859 169.30688477 C61.1565219 166.72502582 61.26569812 164.14384608 61.375 161.5625 C61.4059375 160.68400391 61.436875 159.80550781 61.46875 158.90039062 C61.72806619 153.04416673 62.57644185 147.68844577 64 142 C70.5883555 142.67228117 76.96027982 144.02612474 83.4140625 145.4765625 C88.91222303 146.27912624 93.40844606 144.99065409 98.578125 143.14453125 C121.00958081 135.30319191 143.39163217 129.77640138 167 127 C167.73428223 126.90936279 168.46856445 126.81872559 169.22509766 126.7253418 C174.89242752 126.05160763 180.54958812 125.69234318 186.25 125.4375 C187.64013306 125.3748999 187.64013306 125.3748999 189.05834961 125.31103516 C196.0464139 125.01216534 203.00562141 124.81466508 210 125 C211.03930664 125.02682861 211.03930664 125.02682861 212.09960938 125.05419922 C243.53511034 125.97207297 276.33787041 130.76821069 305.6394043 142.60986328 C312.49981845 145.38216081 317.66649747 146.84763205 325 145 C326.10730469 144.74992188 327.21460938 144.49984375 328.35546875 144.2421875 C330.61494162 143.72559326 332.86957315 143.18705929 335.1171875 142.62109375 C338 142 338 142 342 142 C343.70271552 148.74856761 344.39299829 155.1169488 344.625 162.0625 C344.66367187 163.02349609 344.70234375 163.98449219 344.7421875 164.97460938 C344.83538626 167.31622814 344.92119185 169.65786037 345 172 C350.46875626 160.4425475 350.41412148 151.54944139 348 139 C351.05688229 137.34357236 354.12139395 135.70178208 357.1875 134.0625 C358.05181641 133.59392578 358.91613281 133.12535156 359.80664062 132.64257812 C360.64775391 132.19462891 361.48886719 131.74667969 362.35546875 131.28515625 C363.12528076 130.87144775 363.89509277 130.45773926 364.68823242 130.03149414 C367.12180458 128.94565167 369.37634398 128.4240867 372 128 C376.80139679 135.30934288 380.08372396 142.76732694 383 151 C383.43523784 140.57041179 382.64996327 132.87851371 377 124 C377 123.34 377 122.68 377 122 C378.5390625 120.484375 378.5390625 120.484375 380.625 118.75 C383.35393125 116.45499775 385.8495109 114.13438291 388.25 111.5 C389.1575 110.675 390.065 109.85 391 109 C396.33947201 109.32491716 399.67694718 114.27554872 403 118 C404.78101685 120.28072662 406.39313252 122.58969878 408 125 C407.6430303 115.18333324 402.09195546 109.23160699 396 102 C399 96 402 90 405 84 C414.25885953 87.38778875 421.37484848 93.87518622 428 101 C425.78361299 91.23404473 420.21671149 84.95850803 412 79.4375 C410.67494022 78.61157591 409.34461242 77.79369483 408 77 C409 69 410 61 411 53 C421.18002092 56.78323937 429.23841708 63.57514519 437 71 C435.87011582 63.57504683 431.41695707 58.97442199 426 54 C422.24619539 51.33123672 418.33803041 48.75625931 413.93115234 47.33081055 C412 46 412 46 411.22631836 43.1652832 C411.09878174 41.97249756 410.97124512 40.77971191 410.83984375 39.55078125 C410.76383438 38.90110886 410.68782501 38.25143646 410.60951233 37.58207703 C410.36803322 35.49375096 410.1515285 33.40380216 409.9375 31.3125 C409.64321604 28.59919538 409.33805798 25.88725065 409.02734375 23.17578125 C408.95188324 22.50620392 408.87642273 21.83662659 408.79867554 21.14675903 C407.95498594 14.01012754 406.52473065 7.01983714 405 0 C409.97843355 2.65101586 413.94623211 5.47500267 418 9.375 C421.15468184 12.35146502 424.29380942 15.29454038 427.6875 18 C432.46514227 22.04708047 436.17421758 27.07736114 440 32 C440.69480469 32.86753906 441.38960938 33.73507813 442.10546875 34.62890625 C456.57570195 53.40942168 460.92964658 74.68174445 459 98 C454.20837828 133.52188903 426.33766405 165.73244936 399 187 C397.6679198 188.00166866 396.33479093 189.00194642 395 190 C395.72477539 190.06993164 396.44955078 190.13986328 397.19628906 190.21191406 C400.54911007 190.54367586 403.89937978 190.89672809 407.25 191.25 C408.38953125 191.35957031 409.5290625 191.46914062 410.703125 191.58203125 C420.04623949 192.59066293 431.15067028 193.9144865 438 201 C439.94054184 204.88108369 439.62758745 209.03182634 438.33984375 213.0703125 C427.18096061 236.06694619 398.15674835 249.63681194 375.42578125 257.87109375 C359.72265505 263.04578414 345.64187715 258.99074572 331.375 251.875 C327.80377221 250.0638594 324.33734315 248.22489543 321 246 C320.87995605 246.78310547 320.75991211 247.56621094 320.63623047 248.37304688 C307.92392446 330.31539945 307.92392446 330.31539945 278.9375 353.1875 C277.63469956 354.13843297 276.32591765 355.08157477 275 356 C275.61488281 356.27972656 276.22976563 356.55945313 276.86328125 356.84765625 C281.00747336 358.90322841 283.54094234 360.27663642 286.0625 364.25 C287.94944298 371.79777191 286.97611631 377.86536653 285.1875 385.25 C285.02241943 385.93570068 284.85733887 386.62140137 284.68725586 387.32788086 C283.65062075 391.32089988 282.31142788 394.58253069 280 398 C276.125 397.125 276.125 397.125 275 396 C268.78620629 395.47340731 266.09203622 396.12035336 261 400 C260.34 400 259.68 400 259 400 C258.71125 400.5775 258.4225 401.155 258.125 401.75 C257 404 257 404 255.875 405.875 C254.65201799 408.84509917 254.5448109 410.81367629 255 414 C257.35426499 416.77122275 257.35426499 416.77122275 260 419 C260.33 419.66 260.66 420.32 261 421 C251.52114594 435.48800458 237.45084293 442.21700025 221 446 C201.18922174 449.88692485 178.12660215 447.97891558 160.73046875 436.921875 C147.425 427.275 147.425 427.275 145 420 C145.804375 419.38125 146.60875 418.7625 147.4375 418.125 C150.38871505 415.67765093 150.88667556 414.99725504 151.3125 411.25 C150.92545327 407.224714 149.34803911 405.22855377 147 402 C147 401.34 147 400.68 147 400 C146.13375 399.566875 146.13375 399.566875 145.25 399.125 C143 398 143 398 141.25 396.875 C137.73116033 395.50656235 134.76642201 395.75700503 131 396 C130.34 396.66 129.68 397.32 129 398 C127.0078125 397.8984375 127.0078125 397.8984375 125 397 C119.91479614 388.92349975 118.21750315 377.38996221 119 368 C119.99575969 364.08334523 120.85034757 361.80720277 124.203125 359.453125 C126.4349909 358.20384157 128.67248579 357.05884819 131 356 C130.50371094 355.57589844 130.00742188 355.15179688 129.49609375 354.71484375 C127.31260026 352.82966436 125.15415975 350.91860789 123 349 C122.10474609 348.22462891 122.10474609 348.22462891 121.19140625 347.43359375 C95.50974865 323.76850972 89.22247028 278.48338976 85 246 C83.97261719 246.60328125 82.94523438 247.2065625 81.88671875 247.828125 C66.22058866 256.9090607 51.09882714 263.37651025 32.75805664 258.61669922 C9.71340598 251.95413912 -18.41066638 236.18352911 -31.125 215.375 C-33.30545717 210.96736158 -33.81189829 207.87138977 -33 203 C-26.97798975 195.02969232 -17.34125047 193.4622545 -8 192 C-1.68274436 191.17874444 4.6562903 190.57485642 11 190 C10.42894531 189.56171875 9.85789063 189.1234375 9.26953125 188.671875 C2.30959319 183.22785349 -4.18773367 177.38536446 -10.60205078 171.31884766 C-11.7249298 170.25950562 -12.85878313 169.21180178 -13.99609375 168.16796875 C-19.5550162 162.90232278 -24.12570615 156.73355081 -28.74560547 150.65136719 C-29.79185141 149.27402045 -30.84960121 147.90542176 -31.91015625 146.5390625 C-48.3846243 124.3394247 -55.77930844 99.12008832 -52.73193359 71.57714844 C-48.28774281 43.93139024 -26.68702418 19.37529134 -4.8125 3.375 C-3.21315498 2.24315583 -1.610834 1.11543244 0 0 Z M101.34375 245.57421875 C100.7353125 246.27160156 100.126875 246.96898437 99.5 247.6875 C98.8915625 248.37199219 98.283125 249.05648437 97.65625 249.76171875 C93.41498348 255.49343034 93.32535691 261.11693248 94 268 C96.42579171 280.4049468 101.70605241 295.26995354 111.84375 303.49609375 C114.5720213 305.04683286 116.58967215 306 119.75 306 C122.52280951 304.76764022 123.39585735 303.55307211 125 301 C128.48793646 284.50300323 116.42598102 261.74753722 108.0625 248.1875 C106.53473279 245.74704645 106.53473279 245.74704645 105 244 C102.86077245 243.77035695 102.86077245 243.77035695 101.34375 245.57421875 Z M301 244 C292.4027535 254.70686107 287.60497992 268.42864611 283.5625 281.375 C283.17372681 282.58627563 283.17372681 282.58627563 282.77709961 283.82202148 C281.09249765 289.48462204 280.1864716 295.09441115 281 301 C282.8990956 304.31830353 282.8990956 304.31830353 286 306 C290.35123292 306.18515885 293.23173142 304.68787697 296.4296875 301.7578125 C303.09552037 294.29605929 306.86708535 285.38650599 310 276 C310.2475 275.26910156 310.495 274.53820312 310.75 273.78515625 C312.76678486 266.93649101 313.37954098 259.20610008 310.3125 252.625 C308.34858249 249.22833128 306.01293579 246.53720908 303 244 C302.34 244 301.68 244 301 244 Z " fill="#000000" transform="translate(53,32)"/>
</svg>
