<?xml version="1.0" encoding="UTF-8"?>
<svg version="1.1" xmlns="http://www.w3.org/2000/svg" width="512" height="512">
<path d="M0 0 C0.99 0.66 1.98 1.32 3 2 C3.67482422 1.36384766 3.67482422 1.36384766 4.36328125 0.71484375 C16.51736056 -10.36753318 31.52425566 -18.02491077 48 -20 C49.04542969 -20.13277344 50.09085937 -20.26554687 51.16796875 -20.40234375 C75.78913892 -22.79196659 103.74350577 -18.43560662 123.609375 -2.984375 C124.39828125 -2.32953125 125.1871875 -1.6746875 126 -1 C126.96679688 -0.20335937 126.96679688 -0.20335937 127.953125 0.609375 C136.31354989 8.21660846 142.07923896 19.17004942 145 30 C145.17805176 30.61617187 145.35610352 31.23234375 145.53955078 31.8671875 C147.78903852 40.95234326 147.2162126 50.33680361 147.125 59.625 C147.11495103 61.41015123 147.10582857 63.19530794 147.09765625 64.98046875 C147.0757925 69.32044931 147.04136815 73.66016332 147 78 C147.90750504 77.99163872 147.90750504 77.99163872 148.83334351 77.98310852 C150.03418076 77.9766053 150.03418076 77.9766053 151.25927734 77.9699707 C152.44521988 77.96160942 152.44521988 77.96160942 153.65512085 77.95307922 C180.24990275 78.48523791 204.30510936 93.33864803 223 111 C223.76183594 111.69738281 224.52367187 112.39476562 225.30859375 113.11328125 C240.337361 127.36065679 249.46677102 146.31283411 255 166 C255.51240234 167.76923828 255.51240234 167.76923828 256.03515625 169.57421875 C263.35177232 200.50819088 256.30096556 233.06885783 245 262 C244.57098389 263.11060791 244.57098389 263.11060791 244.13330078 264.24365234 C237.50908719 281.11500566 227.92982759 296.59864293 217 311 C216.57783203 311.56493164 216.15566406 312.12986328 215.72070312 312.71191406 C205.6277889 326.18178079 194.01163817 338.2374511 182 350 C190.4944578 352.63339844 198.99471699 354.87765982 207.74609375 356.4921875 C208.42317886 356.6178006 209.10026398 356.7434137 209.79786682 356.87283325 C213.19761836 357.4987724 216.59979175 358.10245764 220.00805664 358.68017578 C230.75201515 360.61068313 239.60270181 363.18453545 246.59765625 371.95703125 C251.29345744 378.79798954 252.45401066 385.69105193 251.4375 393.875 C249.79867055 402.66308543 245.21322799 408.89063018 238 414 C227.26608178 420.13366756 216.09373311 418.14450523 204.4375 415.875 C203.25929688 415.6490918 202.08109375 415.42318359 200.8671875 415.19042969 C177.66752161 410.65594954 153.37323218 405.70538173 132.0859375 395.09765625 C128.07077465 393.21326122 128.07077465 393.21326122 123.66796875 393.48046875 C122.78753906 393.98191406 121.90710938 394.48335938 121 395 C120.10925781 395.49113281 119.21851563 395.98226563 118.30078125 396.48828125 C117.31464844 397.09027344 116.32851563 397.69226563 115.3125 398.3125 C92.26915535 411.8552925 53.61934306 434.37417514 25.48828125 427.85546875 C17.13277887 424.9828549 11.10133156 419.27771067 7.25 411.4375 C4.03158636 402.58686249 4.39327728 394.68335508 8 386 C12.60394539 377.76739983 19.09306163 373.702698 28.01953125 371.04296875 C30.2815298 370.4160316 32.54598141 369.79789421 34.8125 369.1875 C52.87494845 364.07169425 70.74998468 357.12985705 86.8203125 347.26953125 C89 346 89 346 91 346 C90.97061606 345.43860581 90.94123212 344.87721161 90.91095775 344.29880548 C90.10841799 328.57688194 89.84394179 312.89569462 89.82641602 297.15527344 C89.82009108 294.65744415 89.81332323 292.15961595 89.80615234 289.66178894 C89.79162575 284.33435 89.77976846 279.00691562 89.77020454 273.67946625 C89.75617681 265.96537139 89.73497263 258.25130757 89.71177601 250.53723541 C89.67407875 237.99862638 89.63905677 225.46001189 89.60717773 212.92138672 C89.60527724 212.1746719 89.60337675 211.42795708 89.60141867 210.65861455 C89.57452009 200.03506702 89.55064561 189.41151487 89.52803367 178.78795746 C89.52643637 178.03760435 89.52483906 177.28725124 89.52319336 176.51416016 C89.52080316 175.39002746 89.52080316 175.39002746 89.51836468 174.24318501 C89.49156202 161.72975248 89.45716462 149.21635454 89.41653961 136.7029593 C89.39186188 129.00950942 89.37348134 121.31609649 89.363384 113.6226134 C89.35509329 107.73364546 89.33657347 101.84473747 89.31432343 95.95580482 C89.3068678 93.54802827 89.30276807 91.14023854 89.30232811 88.73245049 C89.30124014 85.43780454 89.28794433 82.14341737 89.27174377 78.84881592 C89.27436063 77.90435411 89.27697748 76.95989231 89.27967364 75.98681045 C89.19731264 65.21205444 88.04891992 53.2602359 80.2109375 45.1484375 C74.14757185 40.24459994 66.89779479 37.34359428 59.03515625 37.71875 C51.74302946 38.72649113 45.8674875 41.39731908 41 47 C35.35573147 55.36057277 34.70097729 64.93101596 34.7484436 74.73374939 C34.74547346 75.77977296 34.74250333 76.82579653 34.73944318 77.90351778 C34.73183681 81.39008082 34.73828343 84.87647372 34.74462891 88.36303711 C34.74187747 90.87027602 34.73819664 93.37751406 34.73365784 95.88475037 C34.72555825 101.27520525 34.72321107 106.66561473 34.72560501 112.05607414 C34.72871095 119.8605427 34.71703487 127.66493914 34.70105521 135.46938951 C34.67512503 148.14779944 34.65508965 160.82620942 34.64160156 173.50463867 C34.64079119 174.26252344 34.63998082 175.0204082 34.6391459 175.80125917 C34.62792355 186.55726898 34.62264258 197.31327362 34.61975877 208.0692885 C34.61955478 208.82687007 34.61935079 209.58445164 34.61914062 210.36499023 C34.61894069 211.12164256 34.61874075 211.87829488 34.61853476 212.65787607 C34.61479782 225.28952714 34.59568699 237.92109977 34.56404626 250.55271155 C34.54516808 258.33435256 34.5391476 266.11579206 34.54986344 273.89744962 C34.55694724 279.86331609 34.54336995 285.82895326 34.52224541 291.79479408 C34.51692739 294.23684552 34.51841348 296.67892292 34.52728081 299.12096405 C34.53842803 302.46073362 34.52493908 305.79955497 34.50552368 309.13926697 C34.51921067 310.58048988 34.51921067 310.58048988 34.53317416 312.0508284 C34.42630719 321.53108596 31.43447458 329.37755406 24.9375 336.30859375 C18.30858151 342.09553268 10.99772619 343.35198894 2.43359375 343.28515625 C-4.44174756 342.71416659 -11.20776542 340.05846983 -16 335 C-22.79980269 325.57571207 -24.31620942 316.93717516 -24.22032166 305.50749207 C-24.21991381 304.48738094 -24.21950596 303.46726982 -24.21908575 302.41624624 C-24.21537205 299.01723268 -24.19736982 295.61844842 -24.17944336 292.21948242 C-24.17396469 289.77460412 -24.16941605 287.32972358 -24.16572571 284.88484192 C-24.15602928 279.62860996 -24.14041177 274.37243072 -24.11976433 269.11623192 C-24.09013757 261.5037143 -24.07457807 253.89121502 -24.06295223 246.27865092 C-24.04396247 233.90865004 -24.01822677 221.53867471 -23.98608398 209.16870117 C-23.98320708 208.05957649 -23.98320708 208.05957649 -23.98027206 206.92804525 C-23.95873373 198.6819851 -23.93556267 190.43593081 -23.9105835 182.18988037 C-23.9015516 179.20072434 -23.89253508 176.21156827 -23.88354492 173.22241211 C-23.88132327 172.48481256 -23.87910161 171.74721302 -23.87681263 170.98726197 C-23.84002408 158.66527642 -23.81499023 146.34329767 -23.79907519 134.02126771 C-23.78877295 126.43308909 -23.76844107 118.84506836 -23.73495758 111.25695596 C-23.710098 105.43563905 -23.70086625 99.61437766 -23.69726372 93.79301262 C-23.69325701 91.41305834 -23.68410014 89.03310606 -23.66930008 86.65319443 C-23.00554924 64.30567249 -23.00554924 64.30567249 -33 45 C-38.98669967 40.03541978 -45.91982415 37.51735868 -53.7578125 37.74609375 C-62.46159579 38.73171381 -69.38779907 41.38779907 -75.625 47.625 C-81.25806212 54.86998263 -82.59074525 62.88538172 -82.50552368 71.82276917 C-82.5116138 72.86626917 -82.51770392 73.90976918 -82.52397859 74.9848904 C-82.53950738 78.45703655 -82.52681844 81.92848586 -82.51416016 85.40063477 C-82.51962403 87.89979484 -82.52686724 90.39895155 -82.53575134 92.89810181 C-82.55106466 98.26785782 -82.55440959 103.6374158 -82.54698563 109.00717354 C-82.53643547 116.78056375 -82.54990205 124.55377288 -82.56945018 132.32713901 C-82.60074184 144.95401452 -82.6157909 157.5808516 -82.61914062 170.20776367 C-82.61934461 170.96235463 -82.6195486 171.71694559 -82.61975877 172.49440294 C-82.61996214 173.24992885 -82.62016551 174.00545477 -82.62037504 174.78387541 C-82.6232955 185.4967919 -82.63010138 196.20969653 -82.64160156 206.92260742 C-82.64240686 207.67657543 -82.64321215 208.43054344 -82.64404185 209.20735896 C-82.65780922 221.7904206 -82.67960597 234.37346112 -82.7054714 246.95650333 C-82.7208879 254.70822832 -82.72813278 262.4598841 -82.72467647 270.21162414 C-82.72239028 276.15196369 -82.7297607 282.09226552 -82.74055672 288.03259659 C-82.74323702 290.46539746 -82.74249202 292.89820491 -82.73804665 295.33100319 C-82.73239248 298.65548959 -82.73896691 301.97974172 -82.7484436 305.30421448 C-82.74378039 306.26336952 -82.73911718 307.22252457 -82.73431265 308.21074492 C-82.79057867 318.34147386 -84.55012724 326.93423555 -91 335 C-98.47076927 341.48179444 -105.97734333 343.49738371 -115.75 343.30859375 C-124.00770898 342.5245084 -130.54653756 338.11972256 -136 332 C-139.0246038 327.24455356 -141.12251468 322.42900752 -141.13028526 316.74441624 C-141.13390961 315.87151119 -141.13753396 314.99860614 -141.14126813 314.09924942 C-141.14019988 313.13954536 -141.13913163 312.1798413 -141.13803101 311.1910553 C-141.14085229 310.17198717 -141.14367357 309.15291904 -141.14658034 308.10297006 C-141.15494552 304.67158507 -141.15626626 301.24023226 -141.15771484 297.80883789 C-141.16238179 295.35498971 -141.16752516 292.9011424 -141.17311096 290.44729614 C-141.18440455 285.15333657 -141.19288359 279.85938331 -141.19923019 274.56541634 C-141.20956046 266.19002817 -141.23012697 257.81467964 -141.25234985 249.4393158 C-141.25982998 246.57274355 -141.26724373 243.70617113 -141.27463722 240.83959866 C-141.27648779 240.12313829 -141.27833835 239.40667793 -141.280245 238.66850664 C-141.30117752 230.51037223 -141.32000108 222.35223341 -141.33789062 214.1940918 C-141.33952881 213.44829172 -141.34116699 212.70249164 -141.34285481 211.93409156 C-141.36910214 199.8661574 -141.3877657 187.79822019 -141.40448253 175.73026962 C-141.42193429 163.33158485 -141.45081526 150.93295975 -141.4893719 138.53432268 C-141.51271168 130.89285514 -141.52676104 123.25148493 -141.52869953 115.60998147 C-141.53106825 109.74299374 -141.54899873 103.87611725 -141.57256889 98.00917435 C-141.57974493 95.60989927 -141.58187112 93.21060274 -141.57846642 90.81131935 C-140.91760315 69.08556172 -140.91760315 69.08556172 -150 50 C-156.70382894 43.79480297 -162.99656188 41.48036266 -172.12109375 41.69140625 C-178.58838805 42.38464404 -184.03982536 44.48989837 -188.4375 49.375 C-194.35834776 57.2639042 -195.82808389 65.32952885 -196.375 75 C-197.09117299 84.1576218 -199.87713144 91.06351642 -206.75 97.3046875 C-214.63109524 103.24287385 -223.33859471 104.28376061 -233 103 C-242.56219377 99.90149365 -248.29682343 93.64660923 -253 85 C-258.85380054 67.43859839 -252.01263972 43.98183575 -244.625 28.03125 C-241.18256182 21.37088048 -236.94404919 15.6203147 -232 10 C-231.33355469 9.23816406 -230.66710937 8.47632812 -229.98046875 7.69140625 C-218.43663544 -4.66627801 -201.78055773 -13.50559277 -185 -16 C-184.31164062 -16.10957031 -183.62328125 -16.21914063 -182.9140625 -16.33203125 C-159.5375225 -19.49672529 -139.7850825 -12.94099676 -120 -1 C-119.0409375 -0.42507812 -118.081875 0.14984375 -117.09375 0.7421875 C-116.4028125 1.15726563 -115.711875 1.57234375 -115 2 C-113.87078125 1.05640625 -113.87078125 1.05640625 -112.71875 0.09375 C-78.51227176 -27.77252221 -34.9417733 -26.5042646 0 0 Z M149 136 C148.67 190.45 148.34 244.9 148 301 C176.21614525 276.81473265 197.94913852 239.56009199 201 202 C201.79754964 190.59516942 199.54810091 178.03218247 194 168 C193.60296875 167.21625 193.2059375 166.4325 192.796875 165.625 C185.17918586 151.61545676 172.94027399 142.96386077 158.5 137 C154.64515188 135.72527887 154.64515188 135.72527887 149 136 Z " fill="#000000" transform="translate(254,52)"/>
</svg>
